<svg width="240" height="230" viewBox="0 0 240 230" fill="none" xmlns="http://www.w3.org/2000/svg">
<g filter="url(#filter0_d_115_5)">
<rect x="20" y="16" width="200" height="190" rx="22" fill="url(#paint0_linear_115_5)"/>
</g>
<mask id="mask0_115_5" style="mask-type:alpha" maskUnits="userSpaceOnUse" x="20" y="16" width="200" height="180">
<rect x="20" y="16" width="200" height="180" rx="22" fill="url(#paint1_linear_115_5)"/>
</mask>
<g mask="url(#mask0_115_5)">
<path opacity="0.1" d="M119.48 52.3443C122.602 52.3443 125.133 49.8137 125.133 46.692C125.133 43.5704 122.602 41.0397 119.48 41.0397C116.359 41.0397 113.828 43.5704 113.828 46.692C113.828 49.8137 116.359 52.3443 119.48 52.3443Z" fill="white"/>
<path opacity="0.1" d="M211.048 142.781C214.169 142.781 216.7 140.25 216.7 137.129C216.7 134.007 214.169 131.476 211.048 131.476C207.926 131.476 205.395 134.007 205.395 137.129C205.395 140.25 207.926 142.781 211.048 142.781Z" fill="white"/>
<path opacity="0.1" d="M25.6523 62.5185C28.774 62.5185 31.3046 59.9878 31.3046 56.8662C31.3046 53.7445 28.774 51.2139 25.6523 51.2139C22.5306 51.2139 20 53.7445 20 56.8662C20 59.9878 22.5306 62.5185 25.6523 62.5185Z" fill="white"/>
<path opacity="0.2" d="M71.7957 131.476C71.3892 131.476 70.9918 131.356 70.6537 131.13C70.3157 130.904 70.0523 130.583 69.8967 130.207C69.7411 129.832 69.7004 129.418 69.7797 129.02C69.859 128.621 70.0548 128.255 70.3423 127.967L73.6016 124.708C73.9864 124.322 74.2026 123.8 74.2026 123.255C74.2026 122.71 73.9864 122.187 73.6016 121.801L73.2488 121.448C72.0942 120.291 71.4458 118.723 71.4458 117.089C71.4458 115.454 72.0942 113.886 73.2488 112.729L76.5084 109.469C76.8939 109.084 77.4167 108.867 77.9618 108.867C78.5069 108.867 79.0297 109.084 79.4152 109.469C79.8007 109.854 80.0172 110.377 80.0172 110.922C80.0172 111.468 79.8007 111.99 79.4152 112.376L76.1559 115.635C75.7711 116.021 75.5549 116.544 75.5549 117.089C75.5549 117.633 75.7711 118.156 76.1559 118.542L76.5087 118.895C77.6632 120.052 78.3117 121.62 78.3117 123.255C78.3117 124.889 77.6632 126.457 76.5087 127.615L73.2491 130.874C73.0584 131.065 72.8319 131.217 72.5825 131.32C72.333 131.424 72.0657 131.477 71.7957 131.476V131.476Z" fill="white"/>
<path opacity="0.2" d="M191.507 200.596C191.385 200.807 191.203 200.977 190.984 201.085C190.765 201.193 190.519 201.234 190.278 201.202C190.036 201.17 189.809 201.067 189.625 200.907C189.442 200.746 189.31 200.534 189.247 200.298L188.532 197.627C188.447 197.311 188.24 197.042 187.957 196.879C187.673 196.715 187.337 196.671 187.021 196.755L186.732 196.833C185.784 197.085 184.775 196.952 183.926 196.461C183.076 195.971 182.456 195.164 182.201 194.217L181.485 191.545C181.4 191.229 181.445 190.892 181.608 190.609C181.772 190.326 182.041 190.119 182.357 190.035C182.673 189.95 183.01 189.994 183.293 190.158C183.576 190.321 183.783 190.591 183.868 190.907L184.583 193.578C184.668 193.894 184.875 194.163 185.158 194.326C185.441 194.49 185.778 194.534 186.094 194.45L186.383 194.373C187.331 194.12 188.34 194.253 189.189 194.744C190.039 195.234 190.659 196.041 190.914 196.989L191.63 199.66C191.672 199.817 191.683 199.98 191.662 200.14C191.64 200.301 191.588 200.456 191.507 200.596V200.596Z" fill="white"/>
<path opacity="0.2" d="M173.827 64.7874C173.586 64.7451 173.364 64.6325 173.188 64.4638C173.012 64.2951 172.89 64.078 172.837 63.8399C172.784 63.6017 172.803 63.3533 172.891 63.126C172.98 62.8986 173.134 62.7026 173.333 62.5627L175.599 60.9764C175.867 60.7886 176.049 60.5022 176.105 60.1802C176.162 59.8583 176.089 59.5269 175.902 59.2588L175.73 59.0136C175.168 58.2095 174.949 57.2155 175.119 56.2496C175.289 55.2836 175.836 54.4247 176.639 53.8612L178.904 52.2748C179.172 52.0872 179.504 52.0137 179.826 52.0705C180.148 52.1273 180.434 52.3097 180.622 52.5776C180.809 52.8455 180.883 53.177 180.826 53.4991C180.769 53.8212 180.587 54.1076 180.319 54.2952L178.054 55.8815C177.786 56.0694 177.604 56.3557 177.547 56.6777C177.49 56.9997 177.563 57.331 177.751 57.5991L177.922 57.8443C178.484 58.6484 178.704 59.6424 178.533 60.6084C178.363 61.5743 177.817 62.4332 177.014 62.9968L174.748 64.5832C174.616 64.6763 174.466 64.7422 174.308 64.7773C174.15 64.8123 173.986 64.8158 173.827 64.7874V64.7874Z" fill="white"/>
<path opacity="0.1" d="M146.598 20.6951L152.593 14.7L160.587 22.6935L154.592 28.6886L146.598 20.6951Z" fill="white"/>
<path opacity="0.1" d="M24.5085 147.306L30.5037 141.311L38.4972 149.305L32.5021 155.3L24.5085 147.306Z" fill="white"/>
<path opacity="0.1" d="M132.325 83.8909L140.292 86.7907L136.426 97.4135L128.459 94.5137L132.325 83.8909Z" fill="white"/>
<g clip-path="url(#clip0_115_5)">
<path d="M79.0395 43.0093L78.4548 49.3224L86.2221 47.6625L79.0395 43.0093ZM78.0938 42.8569L72.4555 44.0725L77.5386 48.9058L78.0938 42.8569ZM86.4402 48.5828L78.3567 50.321L76.8175 66.7971C76.8167 66.812 76.8081 66.8286 76.8057 66.8426C76.8005 66.8746 76.7957 66.9025 76.7822 66.9336C76.7773 66.948 76.777 66.9656 76.7704 66.979L86.4402 48.5828ZM71.6047 44.5658L68.8177 51.3818L76.9343 49.6473L71.6047 44.5658ZM70.6267 44.4633L65.0045 45.654L67.9792 50.9271L70.6267 44.4633ZM77.3784 50.5193L68.7812 52.3673L76.0135 65.1963L77.3784 50.5193ZM64.1993 46.1591L59.5299 53.3666L67.3177 51.7024L64.1993 46.1591ZM67.803 52.5656L59.707 54.2957L75.997 67.0799C75.9881 67.0697 75.9755 67.0549 75.9677 67.0432C75.9546 67.0258 75.945 67.0064 75.9339 66.9859L67.803 52.5656Z" fill="#EA3675"/>
</g>
<g clip-path="url(#clip1_115_5)">
<path d="M147.522 122.337L148.296 125.927L152.299 123.659L147.522 122.337ZM146.973 122.417L144.069 124.069L147.718 125.856L146.973 122.417ZM152.579 124.13L148.416 126.495L150.43 135.866C150.432 135.874 150.43 135.885 150.431 135.893C150.434 135.912 150.436 135.928 150.434 135.947C150.434 135.956 150.437 135.966 150.436 135.975L152.579 124.13ZM143.685 124.49L143.33 128.74L147.513 126.371L143.685 124.49ZM143.126 124.603L140.227 126.239L142.788 128.635L143.126 124.603ZM147.91 126.775L143.481 129.291L149.707 135.121L147.91 126.775ZM139.87 126.658L138.544 131.452L142.557 129.178L139.87 126.658ZM142.975 129.571L138.803 131.934L150.026 136.165C150.019 136.161 150.01 136.155 150.003 136.15C149.993 136.142 149.984 136.133 149.975 136.124L142.975 129.571Z" fill="#F75686"/>
</g>
</g>
<defs>
<filter id="filter0_d_115_5" x="0" y="0" width="240" height="230" filterUnits="userSpaceOnUse" color-interpolation-filters="sRGB">
<feFlood flood-opacity="0" result="BackgroundImageFix"/>
<feColorMatrix in="SourceAlpha" type="matrix" values="0 0 0 0 0 0 0 0 0 0 0 0 0 0 0 0 0 0 127 0" result="hardAlpha"/>
<feOffset dy="4"/>
<feGaussianBlur stdDeviation="10"/>
<feColorMatrix type="matrix" values="0 0 0 0 0.886275 0 0 0 0 0.152941 0 0 0 0 0.407843 0 0 0 0.3 0"/>
<feBlend mode="normal" in2="BackgroundImageFix" result="effect1_dropShadow_115_5"/>
<feBlend mode="normal" in="SourceGraphic" in2="effect1_dropShadow_115_5" result="shape"/>
</filter>
<linearGradient id="paint0_linear_115_5" x1="-76.3499" y1="111" x2="113.763" y2="303.814" gradientUnits="userSpaceOnUse">
<stop stop-color="#DE206A"/>
<stop offset="0.996625" stop-color="#FF5858"/>
<stop offset="1" stop-color="#FF5858"/>
</linearGradient>
<linearGradient id="paint1_linear_115_5" x1="-76.3499" y1="106" x2="103.357" y2="298.386" gradientUnits="userSpaceOnUse">
<stop stop-color="#DE206A"/>
<stop offset="0.996625" stop-color="#FF5858"/>
<stop offset="1" stop-color="#FF5858"/>
</linearGradient>
<clipPath id="clip0_115_5">
<rect width="23.7726" height="23.7726" fill="white" transform="translate(69.7429 35.8534) rotate(32.9374)"/>
</clipPath>
<clipPath id="clip1_115_5">
<rect width="13.7691" height="13.7691" fill="white" transform="translate(141.141 120) rotate(15.468)"/>
</clipPath>
</defs>
</svg>
