<svg width="132" height="17" viewBox="0 0 132 17" fill="none" xmlns="http://www.w3.org/2000/svg">
<mask id="path-1-outside-1_5422_9962" maskUnits="userSpaceOnUse" x="0.615967" y="0.47998" width="131" height="16" fill="black">
<rect fill="white" x="0.615967" y="0.47998" width="131" height="16"/>
<path d="M2.61597 14H5.65597V10.32H9.81597V7.59998H5.65597V5.67998H11.096V2.79998H2.61597V14Z"/>
<path d="M15.4172 9.11998L16.4252 5.91998H16.4892L17.4972 9.11998H15.4172ZM10.5372 14H13.8172L14.6172 11.6H18.2972L19.0972 14H22.3772L18.1372 2.79998H14.7772L10.5372 14Z"/>
<path d="M25.0235 14H28.3835L32.3835 2.79998H29.1035L26.7355 10.64H26.6715L24.3035 2.79998H21.0235L25.0235 14Z"/>
<path d="M33.6628 14H42.3828V11.28H36.7028V9.67998H40.9428V7.11998H36.7028V5.51998H42.2228V2.79998H33.6628V14Z"/>
<path d="M47.8191 14H50.8591V10.48H52.5391L54.3791 14H57.5791L55.2591 9.83998C55.6271 9.66398 55.9471 9.42398 56.2191 9.13598C56.7151 8.63998 57.1791 7.85598 57.1791 6.63998C57.1791 4.47998 55.4831 2.79998 53.0991 2.79998H47.8191V14ZM50.8591 7.75998V5.51998H52.9391C53.6591 5.51998 54.1391 5.99998 54.1391 6.63998C54.1391 7.27998 53.6591 7.75998 52.9391 7.75998H50.8591Z"/>
<path d="M59.2566 14H67.9766V11.28H62.2966V9.67998H66.5366V7.11998H62.2966V5.51998H67.8166V2.79998H59.2566V14Z"/>
<path d="M72.2972 14H75.0172L77.0652 7.27998H77.1292L79.1772 14H81.8972L85.5772 2.79998H82.2972L80.5372 9.35998H80.4572L78.4572 2.79998H75.7372L73.7372 9.35998H73.6572L71.8972 2.79998H68.6172L72.2972 14Z"/>
<path d="M89.4172 9.11998L90.4252 5.91998H90.4892L91.4972 9.11998H89.4172ZM84.5372 14H87.8172L88.6172 11.6H92.2972L93.0972 14H96.3772L92.1372 2.79998H88.7772L84.5372 14Z"/>
<path d="M97.5847 14H100.625V10.48H102.305L104.145 14H107.345L105.025 9.83998C105.393 9.66398 105.713 9.42398 105.985 9.13598C106.481 8.63998 106.945 7.85598 106.945 6.63998C106.945 4.47998 105.249 2.79998 102.865 2.79998H97.5847V14ZM100.625 7.75998V5.51998H102.705C103.425 5.51998 103.905 5.99998 103.905 6.63998C103.905 7.27998 103.425 7.75998 102.705 7.75998H100.625Z"/>
<path d="M109.022 14H113.182C116.782 14 119.262 11.52 119.262 8.39998C119.262 5.27998 116.782 2.79998 113.182 2.79998H109.022V14ZM112.062 11.28V5.51998H113.182C114.926 5.51998 116.142 6.73598 116.142 8.39998C116.142 10.064 114.926 11.28 113.182 11.28H112.062Z"/>
<path d="M120.298 12.4C120.602 12.768 120.97 13.088 121.402 13.36C122.154 13.856 123.242 14.32 124.778 14.32C127.514 14.32 129.178 12.64 129.178 10.72C129.178 6.79998 123.898 7.43998 123.898 5.91998C123.898 5.51998 124.282 5.11998 125.178 5.11998C125.738 5.11998 126.202 5.32798 126.522 5.56798C126.714 5.69598 126.874 5.83998 127.018 5.99998L128.778 4.07998C128.522 3.77598 128.202 3.51998 127.834 3.27998C127.194 2.87998 126.218 2.47998 124.858 2.47998C122.218 2.47998 120.618 4.15998 120.618 5.91998C120.618 9.83998 125.898 9.19998 125.898 10.72C125.898 11.216 125.418 11.68 124.458 11.68C123.738 11.68 123.146 11.392 122.714 11.088C122.474 10.912 122.25 10.704 122.058 10.48L120.298 12.4Z"/>
</mask>
<path d="M2.61597 14H5.65597V10.32H9.81597V7.59998H5.65597V5.67998H11.096V2.79998H2.61597V14Z" fill="white"/>
<path d="M15.4172 9.11998L16.4252 5.91998H16.4892L17.4972 9.11998H15.4172ZM10.5372 14H13.8172L14.6172 11.6H18.2972L19.0972 14H22.3772L18.1372 2.79998H14.7772L10.5372 14Z" fill="white"/>
<path d="M25.0235 14H28.3835L32.3835 2.79998H29.1035L26.7355 10.64H26.6715L24.3035 2.79998H21.0235L25.0235 14Z" fill="white"/>
<path d="M33.6628 14H42.3828V11.28H36.7028V9.67998H40.9428V7.11998H36.7028V5.51998H42.2228V2.79998H33.6628V14Z" fill="white"/>
<path d="M47.8191 14H50.8591V10.48H52.5391L54.3791 14H57.5791L55.2591 9.83998C55.6271 9.66398 55.9471 9.42398 56.2191 9.13598C56.7151 8.63998 57.1791 7.85598 57.1791 6.63998C57.1791 4.47998 55.4831 2.79998 53.0991 2.79998H47.8191V14ZM50.8591 7.75998V5.51998H52.9391C53.6591 5.51998 54.1391 5.99998 54.1391 6.63998C54.1391 7.27998 53.6591 7.75998 52.9391 7.75998H50.8591Z" fill="white"/>
<path d="M59.2566 14H67.9766V11.28H62.2966V9.67998H66.5366V7.11998H62.2966V5.51998H67.8166V2.79998H59.2566V14Z" fill="white"/>
<path d="M72.2972 14H75.0172L77.0652 7.27998H77.1292L79.1772 14H81.8972L85.5772 2.79998H82.2972L80.5372 9.35998H80.4572L78.4572 2.79998H75.7372L73.7372 9.35998H73.6572L71.8972 2.79998H68.6172L72.2972 14Z" fill="white"/>
<path d="M89.4172 9.11998L90.4252 5.91998H90.4892L91.4972 9.11998H89.4172ZM84.5372 14H87.8172L88.6172 11.6H92.2972L93.0972 14H96.3772L92.1372 2.79998H88.7772L84.5372 14Z" fill="white"/>
<path d="M97.5847 14H100.625V10.48H102.305L104.145 14H107.345L105.025 9.83998C105.393 9.66398 105.713 9.42398 105.985 9.13598C106.481 8.63998 106.945 7.85598 106.945 6.63998C106.945 4.47998 105.249 2.79998 102.865 2.79998H97.5847V14ZM100.625 7.75998V5.51998H102.705C103.425 5.51998 103.905 5.99998 103.905 6.63998C103.905 7.27998 103.425 7.75998 102.705 7.75998H100.625Z" fill="white"/>
<path d="M109.022 14H113.182C116.782 14 119.262 11.52 119.262 8.39998C119.262 5.27998 116.782 2.79998 113.182 2.79998H109.022V14ZM112.062 11.28V5.51998H113.182C114.926 5.51998 116.142 6.73598 116.142 8.39998C116.142 10.064 114.926 11.28 113.182 11.28H112.062Z" fill="white"/>
<path d="M120.298 12.4C120.602 12.768 120.97 13.088 121.402 13.36C122.154 13.856 123.242 14.32 124.778 14.32C127.514 14.32 129.178 12.64 129.178 10.72C129.178 6.79998 123.898 7.43998 123.898 5.91998C123.898 5.51998 124.282 5.11998 125.178 5.11998C125.738 5.11998 126.202 5.32798 126.522 5.56798C126.714 5.69598 126.874 5.83998 127.018 5.99998L128.778 4.07998C128.522 3.77598 128.202 3.51998 127.834 3.27998C127.194 2.87998 126.218 2.47998 124.858 2.47998C122.218 2.47998 120.618 4.15998 120.618 5.91998C120.618 9.83998 125.898 9.19998 125.898 10.72C125.898 11.216 125.418 11.68 124.458 11.68C123.738 11.68 123.146 11.392 122.714 11.088C122.474 10.912 122.25 10.704 122.058 10.48L120.298 12.4Z" fill="white"/>
<path d="M2.61597 14H5.65597V10.32H9.81597V7.59998H5.65597V5.67998H11.096V2.79998H2.61597V14Z" stroke="black" stroke-width="4" stroke-linejoin="round" mask="url(#path-1-outside-1_5422_9962)"/>
<path d="M15.4172 9.11998L16.4252 5.91998H16.4892L17.4972 9.11998H15.4172ZM10.5372 14H13.8172L14.6172 11.6H18.2972L19.0972 14H22.3772L18.1372 2.79998H14.7772L10.5372 14Z" stroke="black" stroke-width="4" stroke-linejoin="round" mask="url(#path-1-outside-1_5422_9962)"/>
<path d="M25.0235 14H28.3835L32.3835 2.79998H29.1035L26.7355 10.64H26.6715L24.3035 2.79998H21.0235L25.0235 14Z" stroke="black" stroke-width="4" stroke-linejoin="round" mask="url(#path-1-outside-1_5422_9962)"/>
<path d="M33.6628 14H42.3828V11.28H36.7028V9.67998H40.9428V7.11998H36.7028V5.51998H42.2228V2.79998H33.6628V14Z" stroke="black" stroke-width="4" stroke-linejoin="round" mask="url(#path-1-outside-1_5422_9962)"/>
<path d="M47.8191 14H50.8591V10.48H52.5391L54.3791 14H57.5791L55.2591 9.83998C55.6271 9.66398 55.9471 9.42398 56.2191 9.13598C56.7151 8.63998 57.1791 7.85598 57.1791 6.63998C57.1791 4.47998 55.4831 2.79998 53.0991 2.79998H47.8191V14ZM50.8591 7.75998V5.51998H52.9391C53.6591 5.51998 54.1391 5.99998 54.1391 6.63998C54.1391 7.27998 53.6591 7.75998 52.9391 7.75998H50.8591Z" stroke="black" stroke-width="4" stroke-linejoin="round" mask="url(#path-1-outside-1_5422_9962)"/>
<path d="M59.2566 14H67.9766V11.28H62.2966V9.67998H66.5366V7.11998H62.2966V5.51998H67.8166V2.79998H59.2566V14Z" stroke="black" stroke-width="4" stroke-linejoin="round" mask="url(#path-1-outside-1_5422_9962)"/>
<path d="M72.2972 14H75.0172L77.0652 7.27998H77.1292L79.1772 14H81.8972L85.5772 2.79998H82.2972L80.5372 9.35998H80.4572L78.4572 2.79998H75.7372L73.7372 9.35998H73.6572L71.8972 2.79998H68.6172L72.2972 14Z" stroke="black" stroke-width="4" stroke-linejoin="round" mask="url(#path-1-outside-1_5422_9962)"/>
<path d="M89.4172 9.11998L90.4252 5.91998H90.4892L91.4972 9.11998H89.4172ZM84.5372 14H87.8172L88.6172 11.6H92.2972L93.0972 14H96.3772L92.1372 2.79998H88.7772L84.5372 14Z" stroke="black" stroke-width="4" stroke-linejoin="round" mask="url(#path-1-outside-1_5422_9962)"/>
<path d="M97.5847 14H100.625V10.48H102.305L104.145 14H107.345L105.025 9.83998C105.393 9.66398 105.713 9.42398 105.985 9.13598C106.481 8.63998 106.945 7.85598 106.945 6.63998C106.945 4.47998 105.249 2.79998 102.865 2.79998H97.5847V14ZM100.625 7.75998V5.51998H102.705C103.425 5.51998 103.905 5.99998 103.905 6.63998C103.905 7.27998 103.425 7.75998 102.705 7.75998H100.625Z" stroke="black" stroke-width="4" stroke-linejoin="round" mask="url(#path-1-outside-1_5422_9962)"/>
<path d="M109.022 14H113.182C116.782 14 119.262 11.52 119.262 8.39998C119.262 5.27998 116.782 2.79998 113.182 2.79998H109.022V14ZM112.062 11.28V5.51998H113.182C114.926 5.51998 116.142 6.73598 116.142 8.39998C116.142 10.064 114.926 11.28 113.182 11.28H112.062Z" stroke="black" stroke-width="4" stroke-linejoin="round" mask="url(#path-1-outside-1_5422_9962)"/>
<path d="M120.298 12.4C120.602 12.768 120.97 13.088 121.402 13.36C122.154 13.856 123.242 14.32 124.778 14.32C127.514 14.32 129.178 12.64 129.178 10.72C129.178 6.79998 123.898 7.43998 123.898 5.91998C123.898 5.51998 124.282 5.11998 125.178 5.11998C125.738 5.11998 126.202 5.32798 126.522 5.56798C126.714 5.69598 126.874 5.83998 127.018 5.99998L128.778 4.07998C128.522 3.77598 128.202 3.51998 127.834 3.27998C127.194 2.87998 126.218 2.47998 124.858 2.47998C122.218 2.47998 120.618 4.15998 120.618 5.91998C120.618 9.83998 125.898 9.19998 125.898 10.72C125.898 11.216 125.418 11.68 124.458 11.68C123.738 11.68 123.146 11.392 122.714 11.088C122.474 10.912 122.25 10.704 122.058 10.48L120.298 12.4Z" stroke="black" stroke-width="4" stroke-linejoin="round" mask="url(#path-1-outside-1_5422_9962)"/>
</svg>
