<svg width="159" height="94" viewBox="0 0 159 94" fill="none" xmlns="http://www.w3.org/2000/svg">
<path fill-rule="evenodd" clip-rule="evenodd" d="M93.6963 27.5368C92.2868 25.9664 89.5004 25.6909 87.4285 27.5505C87.1921 27.7627 86.721 28.4301 86.1784 29.7838C85.6744 31.0412 85.2406 32.5492 84.8846 34.0564C84.7443 34.6502 84.6189 35.2322 84.5078 35.7839C85.0683 35.7329 85.6604 35.6708 86.2658 35.5953C87.8026 35.4036 89.3486 35.1347 90.6529 34.769C92.0571 34.3753 92.7713 33.9788 93.0078 33.7666C95.0796 31.907 95.1058 29.1071 93.6963 27.5368ZM80.6519 42.5771L80.6406 42.5773C80.6406 42.5773 80.6406 42.5773 80.6405 42.5769L80.6396 42.5769L80.6396 42.5773L76.8837 42.627L76.9133 42.3834C76.0894 42.3174 75.1758 42.229 74.2255 42.1105C72.52 41.8978 70.6193 41.5789 68.8787 41.0909C67.2381 40.631 65.3092 39.9081 63.9105 38.6527C59.442 34.642 58.6276 27.7124 62.7215 23.1512C66.8154 18.59 73.7924 18.6536 78.261 22.6644C79.2895 23.5876 80.0627 24.8269 80.6519 26.0471C81.2412 24.8269 82.0144 23.5876 83.0429 22.6644C87.5115 18.6536 94.4885 18.59 98.5824 23.1512C102.676 27.7124 101.862 34.642 97.3934 38.6527C95.9947 39.9081 94.0658 40.631 92.4252 41.0909C90.6846 41.5789 88.7839 41.8978 87.0784 42.1105C86.1281 42.229 85.2145 42.3174 84.3906 42.3834L84.4202 42.627L80.6642 42.5773L80.6643 42.5769L80.6634 42.5769C80.6633 42.5773 80.6633 42.5773 80.6633 42.5773L80.6519 42.5771ZM67.6076 27.5368C69.0171 25.9664 71.8035 25.6909 73.8754 27.5505C74.1118 27.7627 74.5829 28.4301 75.1255 29.7838C75.6295 31.0412 76.0633 32.5492 76.4193 34.0564C76.5596 34.6502 76.685 35.2322 76.7961 35.7839C76.2356 35.7329 75.6435 35.6708 75.0381 35.5953C73.5013 35.4036 71.9553 35.1347 70.651 34.769C69.2468 34.3753 68.5326 33.9788 68.2961 33.7666C66.2243 31.907 66.1981 29.1072 67.6076 27.5368Z" fill="url(#paint0_linear_4947_8221)"/>
<path d="M109.061 46.7916H51.9402V74.3408C51.9402 81.6077 57.8312 87.4987 65.0981 87.4987H95.9035C103.17 87.4987 109.061 81.6077 109.061 74.3408V46.7916Z" fill="#FFC700"/>
<path d="M113 39.9034C113 38.45 111.822 37.2719 110.368 37.2719H50.6316C49.1782 37.2719 48 38.45 48 39.9034V44.1605C48 45.6139 49.1782 46.7921 50.6316 46.7921H110.368C111.822 46.7921 113 45.6139 113 44.1605V39.9034Z" fill="#FFC700"/>
<rect x="76.2336" y="46.7916" width="7.87879" height="40.7071" fill="#FF8731"/>
<rect x="73.6079" y="37.2719" width="13.1313" height="9.5202" fill="#FF8731"/>
<g style="mix-blend-mode:multiply">
<path d="M109.061 46.7916H51.9402V64.8472H109.061V46.7916Z" fill="url(#paint1_linear_4947_8221)"/>
</g>
<path d="M3.16496 85.6484C2.40502 86.4328 2.41493 87.6819 3.18723 88.4542C3.82331 89.0903 4.57237 89.6171 5.37183 90.0515C6.76535 90.831 8.71922 91.56 11.3214 91.56C13.811 91.56 16.0568 90.9126 17.7928 89.5009C17.8524 89.7313 17.9534 89.9522 18.0943 90.1521C18.4689 90.6837 19.0787 91 19.7291 91H27.5691C28.4868 91 29.2868 90.3754 29.5094 89.485L29.9706 87.64H31.6075L32.0688 89.485C32.2914 90.3754 33.0914 91 34.0091 91H41.8491C42.4995 91 43.1093 90.6837 43.4839 90.1521C43.8548 89.6258 43.9494 88.9535 43.7391 88.3458C46.0591 90.3522 49.202 91.56 52.7822 91.56C56.2699 91.56 58.8361 90.4215 60.563 89.2591L60.5679 89.2558C61.025 88.9462 61.4473 88.6198 61.8389 88.274V89C61.8389 90.1045 62.7344 91 63.8389 91H71.1189C72.2235 91 73.1189 90.1045 73.1189 89V87.9785L74.2872 90.0005C74.6446 90.619 75.3046 91 76.0189 91H83.9989C84.2143 91 84.4246 90.9654 84.6232 90.9001C84.8201 90.9649 85.0305 91 85.2491 91H92.5291C93.6337 91 94.5291 90.1045 94.5291 89V85.96H94.9091C97.7817 85.96 100.293 85.0509 102.104 83.3546C102.34 83.1331 102.563 82.9003 102.77 82.6573C104.291 87.8619 109.217 91.56 115.481 91.56C123.062 91.56 128.681 86.1459 128.681 79.2C128.681 78.8356 128.666 78.4754 128.636 78.12H130.584V89C130.584 90.1045 131.48 91 132.584 91H139.864C140.969 91 141.864 90.1045 141.864 89V78.12H144.904C145.061 78.12 145.214 78.1019 145.36 78.0679L145.717 82.039C145.747 82.3711 145.857 82.6783 146.026 82.942C145.36 83.8299 145.009 84.916 145.009 86.06C145.009 87.4895 145.557 88.8289 146.585 89.8037C147.61 90.7762 148.998 91.28 150.509 91.28C152.019 91.28 153.407 90.7762 154.433 89.8037C155.461 88.8289 156.009 87.4895 156.009 86.06C156.009 84.916 155.658 83.8299 154.991 82.942C155.161 82.6783 155.271 82.3711 155.301 82.039L156.421 69.579C156.471 69.0197 156.284 68.465 155.905 68.0505C155.526 67.6361 154.99 67.4 154.429 67.4H146.589C146.295 67.4 146.008 67.4646 145.747 67.5857C145.491 67.4665 145.206 67.4 144.904 67.4H127.544C126.44 67.4 125.544 68.2954 125.544 69.4V71.0452C123.17 68.4519 119.618 66.84 115.481 66.84C110.48 66.84 106.332 69.1967 104.089 72.7953C103.622 71.7486 102.957 70.8042 102.104 70.0053C100.293 68.309 97.7817 67.4 94.9091 67.4H85.2491C84.9232 67.4 84.6154 67.4779 84.3436 67.6162C84.0683 67.4766 83.7595 67.4 83.4389 67.4H75.5989C74.9591 67.4 74.3578 67.7061 73.9815 68.2236L73.1189 69.4096V69.4C73.1189 68.2954 72.2235 67.4 71.1189 67.4H63.8389C62.7344 67.4 61.8389 68.2954 61.8389 69.4V70.1259C61.4473 69.7801 61.025 69.4537 60.5679 69.1441L60.563 69.1408C58.8361 67.9784 56.2699 66.84 52.7822 66.84C45.9594 66.84 40.7249 71.226 39.7469 77.1674L36.7326 68.7273C36.4483 67.9313 35.6943 67.4 34.8491 67.4H26.7291C25.8839 67.4 25.1299 67.9313 24.8456 68.7273L21.1614 79.043V69.4C21.1614 68.2954 20.266 67.4 19.1614 67.4H11.8814C10.7769 67.4 9.88144 68.2954 9.88144 69.4V80.7946C9.59 80.6395 9.26186 80.5574 8.92557 80.56C8.38965 80.5643 7.87786 80.7834 7.50496 81.1684L3.16496 85.6484ZM61.8389 75.39V83.0099L58.6987 79.7684C58.4153 79.4759 58.0523 79.2796 57.6603 79.2C58.0523 79.1203 58.4153 78.9241 58.6987 78.6316L61.8389 75.39ZM55.7354 78.5318C56.0279 78.8775 56.4267 79.1111 56.8642 79.2C56.4267 79.2888 56.0279 79.5224 55.7355 79.8681C55.5366 80.1031 55.3104 80.3095 55.0608 80.4759C55.0468 80.4852 55.033 80.4947 55.0192 80.5044C54.5402 80.8415 53.8984 81.12 53.0622 81.12C52.2545 81.12 51.7175 80.8574 51.3965 80.5517C51.0789 80.2491 50.8622 79.8023 50.8622 79.2C50.8622 78.5977 51.0789 78.1508 51.3965 77.8482C51.7175 77.5425 52.2545 77.28 53.0622 77.28C53.8199 77.28 54.4606 77.5552 55.0453 77.9155C55.3688 78.1565 55.5789 78.3468 55.7354 78.5318ZM83.2491 72.9073V83.8462L79.5565 77.6667L83.2491 72.9073ZM113.561 79.2C113.561 78.0645 114.346 77.28 115.481 77.28C116.617 77.28 117.401 78.0645 117.401 79.2C117.401 80.3354 116.617 81.12 115.481 81.12C114.346 81.12 113.561 80.3354 113.561 79.2Z" fill="white" stroke="black" stroke-width="4" stroke-linejoin="round"/>
<defs>
<linearGradient id="paint0_linear_4947_8221" x1="72.7924" y1="39.4672" x2="72.1861" y2="27.217" gradientUnits="userSpaceOnUse">
<stop stop-color="#FF6A00"/>
<stop offset="1" stop-color="#FF8731"/>
</linearGradient>
<linearGradient id="paint1_linear_4947_8221" x1="80.5008" y1="46.7916" x2="80.5008" y2="64.8472" gradientUnits="userSpaceOnUse">
<stop stop-color="#FFC700"/>
<stop offset="1" stop-color="#FFC700" stop-opacity="0"/>
</linearGradient>
</defs>
</svg>
