<svg width="132" height="30" viewBox="0 0 132 30" fill="none" xmlns="http://www.w3.org/2000/svg">
<path d="M25.3002 4.55654C24.9821 3.87345 24.2895 3.39997 23.4863 3.39997H16.2063C15.1017 3.39997 14.2063 4.2954 14.2063 5.39997V16.6C14.2063 16.7906 14.1773 16.9114 14.1535 16.9775C14.1307 17.0408 14.1104 17.0614 14.1088 17.0631L14.1086 17.0633C14.107 17.065 14.0992 17.0735 14.0704 17.0848C14.0373 17.0977 13.961 17.12 13.8263 17.12C13.6915 17.12 13.6152 17.0977 13.5821 17.0848C13.5533 17.0735 13.5455 17.065 13.5439 17.0633L13.5438 17.0631L13.5437 17.0631C13.5416 17.0609 13.5215 17.04 13.499 16.9775C13.4752 16.9114 13.4463 16.7906 13.4463 16.6V5.39997C13.4463 4.2954 12.5508 3.39997 11.4463 3.39997H4.16626C3.06169 3.39997 2.16626 4.2954 2.16626 5.39997V16.6C2.16626 22.8429 7.08274 27.56 13.8263 27.56C19.4802 27.56 23.8498 24.2441 25.1142 19.4932V25C25.1142 26.1045 26.0097 27 27.1142 27H34.3942C35.4988 27 36.3942 26.1045 36.3942 25V20.28H37.0142V25C37.0142 26.1045 37.9097 27 39.0142 27H46.2942C47.3988 27 48.2942 26.1045 48.2942 25V5.39997C48.2942 4.2954 47.3988 3.39997 46.2942 3.39997H39.0142C37.9097 3.39997 37.0142 4.2954 37.0142 5.39997V9.83997H36.3942V5.39997C36.3942 4.2954 35.4988 3.39997 34.3942 3.39997H27.1142C26.311 3.39997 25.6184 3.87345 25.3002 4.55654ZM78.7627 25C78.7627 26.1045 79.6581 27 80.7627 27H88.0427C89.1472 27 90.0427 26.1045 90.0427 25V20.28H90.6627V25C90.6627 26.1045 91.5581 27 92.6627 27H99.9427C100.924 27 101.74 26.2932 101.91 25.361C102.038 25.5156 102.176 25.6634 102.324 25.8037C103.35 26.7762 104.738 27.28 106.248 27.28C107.759 27.28 109.147 26.7762 110.172 25.8037C110.377 25.6098 110.562 25.4016 110.728 25.181C110.894 25.4016 111.08 25.6098 111.284 25.8037C112.31 26.7762 113.698 27.28 115.208 27.28C116.719 27.28 118.107 26.7762 119.132 25.8037C119.337 25.6098 119.522 25.4016 119.688 25.181C119.854 25.4016 120.04 25.6098 120.244 25.8037C121.27 26.7762 122.658 27.28 124.168 27.28C125.679 27.28 127.067 26.7762 128.092 25.8037C129.12 24.8289 129.668 23.4895 129.668 22.06C129.668 20.6304 129.12 19.2911 128.092 18.3162C127.067 17.3437 125.679 16.84 124.168 16.84C122.658 16.84 121.27 17.3437 120.244 18.3162C120.04 18.5101 119.854 18.7184 119.688 18.9389C119.522 18.7184 119.337 18.5101 119.132 18.3162C118.107 17.3437 116.719 16.84 115.208 16.84C113.698 16.84 112.31 17.3437 111.284 18.3162C111.08 18.5101 110.894 18.7184 110.728 18.9389C110.562 18.7184 110.377 18.5101 110.172 18.3162C109.147 17.3437 107.759 16.84 106.248 16.84C104.738 16.84 103.35 17.3437 102.324 18.3162C102.188 18.4447 102.061 18.5795 101.943 18.72V5.39997C101.943 4.2954 101.047 3.39997 99.9427 3.39997H92.6627C91.5581 3.39997 90.6627 4.2954 90.6627 5.39997V9.83997H90.0427V5.39997C90.0427 4.2954 89.1472 3.39997 88.0427 3.39997H80.7627C79.6581 3.39997 78.7627 4.2954 78.7627 5.39997V9.91585C76.7265 5.69383 72.2564 2.83997 66.7528 2.83997C59.1725 2.83997 53.5528 8.25399 53.5528 15.2C53.5528 22.1459 59.1725 27.56 66.7528 27.56C72.2564 27.56 76.7265 24.7061 78.7627 20.4841V25ZM64.8328 15.2C64.8328 14.0645 65.6174 13.28 66.7528 13.28C67.8883 13.28 68.6728 14.0645 68.6728 15.2C68.6728 16.3354 67.8883 17.12 66.7528 17.12C65.6174 17.12 64.8328 16.3354 64.8328 15.2Z" fill="white" stroke="black" stroke-width="4" stroke-linejoin="round"/>
</svg>
