<svg width="212" height="64" viewBox="0 0 212 64" fill="none" xmlns="http://www.w3.org/2000/svg">
<mask id="path-1-outside-1_4947_8074" maskUnits="userSpaceOnUse" x="0.643753" y="0.839966" width="212" height="63" fill="black">
<rect fill="white" x="0.643753" y="0.839966" width="212" height="63"/>
<path d="M11.6438 25H18.9238V18L25.9238 5.39997H18.0838L15.3398 12.54H15.2278L12.4838 5.39997H4.64375L11.6438 18V25Z"/>
<path d="M36.1416 4.83997C29.5616 4.83997 24.9416 9.45997 24.9416 15.2C24.9416 20.94 29.5616 25.56 36.1416 25.56C42.7216 25.56 47.3416 20.94 47.3416 15.2C47.3416 9.45997 42.7216 4.83997 36.1416 4.83997ZM32.2216 15.2C32.2216 12.96 33.9016 11.28 36.1416 11.28C38.3816 11.28 40.0616 12.96 40.0616 15.2C40.0616 17.44 38.3816 19.12 36.1416 19.12C33.9016 19.12 32.2216 17.44 32.2216 15.2Z"/>
<path d="M49.8714 16.6C49.8714 21.64 53.7914 25.56 59.5314 25.56C65.2714 25.56 69.1914 21.64 69.1914 16.6V5.39997H61.9114V16.6C61.9114 18.168 60.9594 19.12 59.5314 19.12C58.1034 19.12 57.1514 18.168 57.1514 16.6V5.39997H49.8714V16.6Z"/>
<path d="M71.1394 12.4L75.1994 14.64L79.6794 7.63997L74.6394 4.83997L71.1394 12.4Z"/>
<path d="M86.1248 25H94.2449L100.825 5.39997H92.9848L90.2408 18.28H90.1288L87.3848 5.39997H79.5448L86.1248 25Z"/>
<path d="M102.378 25H118.758V19.4H109.658V17.44H116.238V12.96H109.658V11H118.478V5.39997H102.378V25Z"/>
<path d="M128.3 25H138.38C143.98 25 146.36 22.62 146.36 19.54C146.36 17.468 145.156 16.208 143.98 15.536C143.28 15.144 142.468 14.864 141.6 14.696V14.584C142.3 14.416 142.916 14.164 143.476 13.8C144.456 13.156 145.38 12.12 145.38 10.3C145.38 7.63997 143.112 5.39997 137.82 5.39997H128.3V25ZM135.58 19.68V16.88H137.26C138.24 16.88 138.8 17.412 138.8 18.28C138.8 19.148 138.24 19.68 137.26 19.68H135.58ZM135.58 13.24V10.72H136.42C137.344 10.72 137.82 11.196 137.82 11.98C137.82 12.764 137.344 13.24 136.42 13.24H135.58Z"/>
<path d="M149.026 25H165.406V19.4H156.306V17.44H162.886V12.96H156.306V11H165.126V5.39997H149.026V25Z"/>
<path d="M168.495 25H184.875V19.4H175.775V17.44H182.355V12.96H175.775V11H184.595V5.39997H168.495V25Z"/>
<path d="M187.964 25H195.244V16.88L201.544 25H207.704V5.39997H200.424V13.52L194.124 5.39997H187.964V25Z"/>
<path d="M17.4483 59H24.7283V53.68H25.9883L28.5083 59H36.0683L32.2883 52.28C32.8483 51.916 33.3523 51.468 33.8283 50.936C34.5843 50.012 35.3683 48.584 35.3683 46.54C35.3683 42.48 32.2883 39.4 27.5283 39.4H17.4483V59ZM24.7283 48.08V45H26.4083C27.5283 45 28.0883 45.672 28.0883 46.54C28.0883 47.408 27.5283 48.08 26.4083 48.08H24.7283Z"/>
<path d="M38.4483 59H54.8283V53.4H45.7283V51.44H52.3083V46.96H45.7283V45H54.5483V39.4H38.4483V59Z"/>
<path d="M62.117 59H68.137L70.881 50.04H70.993L73.737 59H79.757L86.337 39.4H78.497L76.397 49.48H76.257L73.737 39.4H68.137L65.617 49.48H65.477L63.377 39.4H55.537L62.117 59Z"/>
<path d="M83.6978 59H91.5378L92.3778 55.64H97.1378L97.9778 59H105.818L98.8178 39.4H90.6978L83.6978 59ZM93.3578 51.44L94.7018 45.98H94.8138L96.1578 51.44H93.3578Z"/>
<path d="M107.218 59H114.498V53.68H115.758L118.278 59H125.838L122.058 52.28C122.618 51.916 123.122 51.468 123.598 50.936C124.354 50.012 125.138 48.584 125.138 46.54C125.138 42.48 122.058 39.4 117.298 39.4H107.218V59ZM114.498 48.08V45H116.178C117.298 45 117.858 45.672 117.858 46.54C117.858 47.408 117.298 48.08 116.178 48.08H114.498Z"/>
<path d="M128.218 59H136.338C142.918 59 147.258 54.66 147.258 49.2C147.258 43.74 142.918 39.4 136.338 39.4H128.218V59ZM135.498 53.12V45.28H136.338C138.578 45.28 139.978 46.652 139.978 49.2C139.978 51.748 138.578 53.12 136.338 53.12H135.498Z"/>
<path d="M150.065 59H166.445V53.4H157.345V51.44H163.925V46.96H157.345V45H166.165V39.4H150.065V59Z"/>
<path d="M169.534 59H177.654C184.234 59 188.574 54.66 188.574 49.2C188.574 43.74 184.234 39.4 177.654 39.4H169.534V59ZM176.814 53.12V45.28H177.654C179.894 45.28 181.294 46.652 181.294 49.2C181.294 51.748 179.894 53.12 177.654 53.12H176.814Z"/>
<path d="M191.662 51.86H197.262L198.382 39.4H190.542L191.662 51.86ZM190.962 56.06C190.962 57.88 192.334 59.28 194.462 59.28C196.59 59.28 197.962 57.88 197.962 56.06C197.962 54.24 196.59 52.84 194.462 52.84C192.334 52.84 190.962 54.24 190.962 56.06Z"/>
</mask>
<path d="M11.6438 25H18.9238V18L25.9238 5.39997H18.0838L15.3398 12.54H15.2278L12.4838 5.39997H4.64375L11.6438 18V25Z" fill="white"/>
<path d="M36.1416 4.83997C29.5616 4.83997 24.9416 9.45997 24.9416 15.2C24.9416 20.94 29.5616 25.56 36.1416 25.56C42.7216 25.56 47.3416 20.94 47.3416 15.2C47.3416 9.45997 42.7216 4.83997 36.1416 4.83997ZM32.2216 15.2C32.2216 12.96 33.9016 11.28 36.1416 11.28C38.3816 11.28 40.0616 12.96 40.0616 15.2C40.0616 17.44 38.3816 19.12 36.1416 19.12C33.9016 19.12 32.2216 17.44 32.2216 15.2Z" fill="white"/>
<path d="M49.8714 16.6C49.8714 21.64 53.7914 25.56 59.5314 25.56C65.2714 25.56 69.1914 21.64 69.1914 16.6V5.39997H61.9114V16.6C61.9114 18.168 60.9594 19.12 59.5314 19.12C58.1034 19.12 57.1514 18.168 57.1514 16.6V5.39997H49.8714V16.6Z" fill="white"/>
<path d="M71.1394 12.4L75.1994 14.64L79.6794 7.63997L74.6394 4.83997L71.1394 12.4Z" fill="white"/>
<path d="M86.1248 25H94.2449L100.825 5.39997H92.9848L90.2408 18.28H90.1288L87.3848 5.39997H79.5448L86.1248 25Z" fill="white"/>
<path d="M102.378 25H118.758V19.4H109.658V17.44H116.238V12.96H109.658V11H118.478V5.39997H102.378V25Z" fill="white"/>
<path d="M128.3 25H138.38C143.98 25 146.36 22.62 146.36 19.54C146.36 17.468 145.156 16.208 143.98 15.536C143.28 15.144 142.468 14.864 141.6 14.696V14.584C142.3 14.416 142.916 14.164 143.476 13.8C144.456 13.156 145.38 12.12 145.38 10.3C145.38 7.63997 143.112 5.39997 137.82 5.39997H128.3V25ZM135.58 19.68V16.88H137.26C138.24 16.88 138.8 17.412 138.8 18.28C138.8 19.148 138.24 19.68 137.26 19.68H135.58ZM135.58 13.24V10.72H136.42C137.344 10.72 137.82 11.196 137.82 11.98C137.82 12.764 137.344 13.24 136.42 13.24H135.58Z" fill="white"/>
<path d="M149.026 25H165.406V19.4H156.306V17.44H162.886V12.96H156.306V11H165.126V5.39997H149.026V25Z" fill="white"/>
<path d="M168.495 25H184.875V19.4H175.775V17.44H182.355V12.96H175.775V11H184.595V5.39997H168.495V25Z" fill="white"/>
<path d="M187.964 25H195.244V16.88L201.544 25H207.704V5.39997H200.424V13.52L194.124 5.39997H187.964V25Z" fill="white"/>
<path d="M17.4483 59H24.7283V53.68H25.9883L28.5083 59H36.0683L32.2883 52.28C32.8483 51.916 33.3523 51.468 33.8283 50.936C34.5843 50.012 35.3683 48.584 35.3683 46.54C35.3683 42.48 32.2883 39.4 27.5283 39.4H17.4483V59ZM24.7283 48.08V45H26.4083C27.5283 45 28.0883 45.672 28.0883 46.54C28.0883 47.408 27.5283 48.08 26.4083 48.08H24.7283Z" fill="white"/>
<path d="M38.4483 59H54.8283V53.4H45.7283V51.44H52.3083V46.96H45.7283V45H54.5483V39.4H38.4483V59Z" fill="white"/>
<path d="M62.117 59H68.137L70.881 50.04H70.993L73.737 59H79.757L86.337 39.4H78.497L76.397 49.48H76.257L73.737 39.4H68.137L65.617 49.48H65.477L63.377 39.4H55.537L62.117 59Z" fill="white"/>
<path d="M83.6978 59H91.5378L92.3778 55.64H97.1378L97.9778 59H105.818L98.8178 39.4H90.6978L83.6978 59ZM93.3578 51.44L94.7018 45.98H94.8138L96.1578 51.44H93.3578Z" fill="white"/>
<path d="M107.218 59H114.498V53.68H115.758L118.278 59H125.838L122.058 52.28C122.618 51.916 123.122 51.468 123.598 50.936C124.354 50.012 125.138 48.584 125.138 46.54C125.138 42.48 122.058 39.4 117.298 39.4H107.218V59ZM114.498 48.08V45H116.178C117.298 45 117.858 45.672 117.858 46.54C117.858 47.408 117.298 48.08 116.178 48.08H114.498Z" fill="white"/>
<path d="M128.218 59H136.338C142.918 59 147.258 54.66 147.258 49.2C147.258 43.74 142.918 39.4 136.338 39.4H128.218V59ZM135.498 53.12V45.28H136.338C138.578 45.28 139.978 46.652 139.978 49.2C139.978 51.748 138.578 53.12 136.338 53.12H135.498Z" fill="white"/>
<path d="M150.065 59H166.445V53.4H157.345V51.44H163.925V46.96H157.345V45H166.165V39.4H150.065V59Z" fill="white"/>
<path d="M169.534 59H177.654C184.234 59 188.574 54.66 188.574 49.2C188.574 43.74 184.234 39.4 177.654 39.4H169.534V59ZM176.814 53.12V45.28H177.654C179.894 45.28 181.294 46.652 181.294 49.2C181.294 51.748 179.894 53.12 177.654 53.12H176.814Z" fill="white"/>
<path d="M191.662 51.86H197.262L198.382 39.4H190.542L191.662 51.86ZM190.962 56.06C190.962 57.88 192.334 59.28 194.462 59.28C196.59 59.28 197.962 57.88 197.962 56.06C197.962 54.24 196.59 52.84 194.462 52.84C192.334 52.84 190.962 54.24 190.962 56.06Z" fill="white"/>
<path d="M11.6438 25H18.9238V18L25.9238 5.39997H18.0838L15.3398 12.54H15.2278L12.4838 5.39997H4.64375L11.6438 18V25Z" stroke="black" stroke-width="8" stroke-linejoin="round" mask="url(#path-1-outside-1_4947_8074)"/>
<path d="M36.1416 4.83997C29.5616 4.83997 24.9416 9.45997 24.9416 15.2C24.9416 20.94 29.5616 25.56 36.1416 25.56C42.7216 25.56 47.3416 20.94 47.3416 15.2C47.3416 9.45997 42.7216 4.83997 36.1416 4.83997ZM32.2216 15.2C32.2216 12.96 33.9016 11.28 36.1416 11.28C38.3816 11.28 40.0616 12.96 40.0616 15.2C40.0616 17.44 38.3816 19.12 36.1416 19.12C33.9016 19.12 32.2216 17.44 32.2216 15.2Z" stroke="black" stroke-width="8" stroke-linejoin="round" mask="url(#path-1-outside-1_4947_8074)"/>
<path d="M49.8714 16.6C49.8714 21.64 53.7914 25.56 59.5314 25.56C65.2714 25.56 69.1914 21.64 69.1914 16.6V5.39997H61.9114V16.6C61.9114 18.168 60.9594 19.12 59.5314 19.12C58.1034 19.12 57.1514 18.168 57.1514 16.6V5.39997H49.8714V16.6Z" stroke="black" stroke-width="8" stroke-linejoin="round" mask="url(#path-1-outside-1_4947_8074)"/>
<path d="M71.1394 12.4L75.1994 14.64L79.6794 7.63997L74.6394 4.83997L71.1394 12.4Z" stroke="black" stroke-width="8" stroke-linejoin="round" mask="url(#path-1-outside-1_4947_8074)"/>
<path d="M86.1248 25H94.2449L100.825 5.39997H92.9848L90.2408 18.28H90.1288L87.3848 5.39997H79.5448L86.1248 25Z" stroke="black" stroke-width="8" stroke-linejoin="round" mask="url(#path-1-outside-1_4947_8074)"/>
<path d="M102.378 25H118.758V19.4H109.658V17.44H116.238V12.96H109.658V11H118.478V5.39997H102.378V25Z" stroke="black" stroke-width="8" stroke-linejoin="round" mask="url(#path-1-outside-1_4947_8074)"/>
<path d="M128.3 25H138.38C143.98 25 146.36 22.62 146.36 19.54C146.36 17.468 145.156 16.208 143.98 15.536C143.28 15.144 142.468 14.864 141.6 14.696V14.584C142.3 14.416 142.916 14.164 143.476 13.8C144.456 13.156 145.38 12.12 145.38 10.3C145.38 7.63997 143.112 5.39997 137.82 5.39997H128.3V25ZM135.58 19.68V16.88H137.26C138.24 16.88 138.8 17.412 138.8 18.28C138.8 19.148 138.24 19.68 137.26 19.68H135.58ZM135.58 13.24V10.72H136.42C137.344 10.72 137.82 11.196 137.82 11.98C137.82 12.764 137.344 13.24 136.42 13.24H135.58Z" stroke="black" stroke-width="8" stroke-linejoin="round" mask="url(#path-1-outside-1_4947_8074)"/>
<path d="M149.026 25H165.406V19.4H156.306V17.44H162.886V12.96H156.306V11H165.126V5.39997H149.026V25Z" stroke="black" stroke-width="8" stroke-linejoin="round" mask="url(#path-1-outside-1_4947_8074)"/>
<path d="M168.495 25H184.875V19.4H175.775V17.44H182.355V12.96H175.775V11H184.595V5.39997H168.495V25Z" stroke="black" stroke-width="8" stroke-linejoin="round" mask="url(#path-1-outside-1_4947_8074)"/>
<path d="M187.964 25H195.244V16.88L201.544 25H207.704V5.39997H200.424V13.52L194.124 5.39997H187.964V25Z" stroke="black" stroke-width="8" stroke-linejoin="round" mask="url(#path-1-outside-1_4947_8074)"/>
<path d="M17.4483 59H24.7283V53.68H25.9883L28.5083 59H36.0683L32.2883 52.28C32.8483 51.916 33.3523 51.468 33.8283 50.936C34.5843 50.012 35.3683 48.584 35.3683 46.54C35.3683 42.48 32.2883 39.4 27.5283 39.4H17.4483V59ZM24.7283 48.08V45H26.4083C27.5283 45 28.0883 45.672 28.0883 46.54C28.0883 47.408 27.5283 48.08 26.4083 48.08H24.7283Z" stroke="black" stroke-width="8" stroke-linejoin="round" mask="url(#path-1-outside-1_4947_8074)"/>
<path d="M38.4483 59H54.8283V53.4H45.7283V51.44H52.3083V46.96H45.7283V45H54.5483V39.4H38.4483V59Z" stroke="black" stroke-width="8" stroke-linejoin="round" mask="url(#path-1-outside-1_4947_8074)"/>
<path d="M62.117 59H68.137L70.881 50.04H70.993L73.737 59H79.757L86.337 39.4H78.497L76.397 49.48H76.257L73.737 39.4H68.137L65.617 49.48H65.477L63.377 39.4H55.537L62.117 59Z" stroke="black" stroke-width="8" stroke-linejoin="round" mask="url(#path-1-outside-1_4947_8074)"/>
<path d="M83.6978 59H91.5378L92.3778 55.64H97.1378L97.9778 59H105.818L98.8178 39.4H90.6978L83.6978 59ZM93.3578 51.44L94.7018 45.98H94.8138L96.1578 51.44H93.3578Z" stroke="black" stroke-width="8" stroke-linejoin="round" mask="url(#path-1-outside-1_4947_8074)"/>
<path d="M107.218 59H114.498V53.68H115.758L118.278 59H125.838L122.058 52.28C122.618 51.916 123.122 51.468 123.598 50.936C124.354 50.012 125.138 48.584 125.138 46.54C125.138 42.48 122.058 39.4 117.298 39.4H107.218V59ZM114.498 48.08V45H116.178C117.298 45 117.858 45.672 117.858 46.54C117.858 47.408 117.298 48.08 116.178 48.08H114.498Z" stroke="black" stroke-width="8" stroke-linejoin="round" mask="url(#path-1-outside-1_4947_8074)"/>
<path d="M128.218 59H136.338C142.918 59 147.258 54.66 147.258 49.2C147.258 43.74 142.918 39.4 136.338 39.4H128.218V59ZM135.498 53.12V45.28H136.338C138.578 45.28 139.978 46.652 139.978 49.2C139.978 51.748 138.578 53.12 136.338 53.12H135.498Z" stroke="black" stroke-width="8" stroke-linejoin="round" mask="url(#path-1-outside-1_4947_8074)"/>
<path d="M150.065 59H166.445V53.4H157.345V51.44H163.925V46.96H157.345V45H166.165V39.4H150.065V59Z" stroke="black" stroke-width="8" stroke-linejoin="round" mask="url(#path-1-outside-1_4947_8074)"/>
<path d="M169.534 59H177.654C184.234 59 188.574 54.66 188.574 49.2C188.574 43.74 184.234 39.4 177.654 39.4H169.534V59ZM176.814 53.12V45.28H177.654C179.894 45.28 181.294 46.652 181.294 49.2C181.294 51.748 179.894 53.12 177.654 53.12H176.814Z" stroke="black" stroke-width="8" stroke-linejoin="round" mask="url(#path-1-outside-1_4947_8074)"/>
<path d="M191.662 51.86H197.262L198.382 39.4H190.542L191.662 51.86ZM190.962 56.06C190.962 57.88 192.334 59.28 194.462 59.28C196.59 59.28 197.962 57.88 197.962 56.06C197.962 54.24 196.59 52.84 194.462 52.84C192.334 52.84 190.962 54.24 190.962 56.06Z" stroke="black" stroke-width="8" stroke-linejoin="round" mask="url(#path-1-outside-1_4947_8074)"/>
</svg>
