<svg width="600" height="600" viewBox="0 0 600 600" fill="none" xmlns="http://www.w3.org/2000/svg">
<path fill-rule="evenodd" clip-rule="evenodd" d="M23.3518 416.243L293.348 302.332L2.47195 338.691C0.840985 326.024 0 313.11 0 300C0 287.399 0.77694 274.979 2.28553 262.786L293.347 299.168L22.8188 185.032C32.6439 161.371 45.4103 139.239 60.6618 119.093L294.929 296.429L117.422 61.936C137.501 46.5141 159.586 33.5752 183.219 23.5785L297.669 294.848L261.124 2.49577C273.85 0.849173 286.826 0 300 0C312.665 0 325.147 0.784803 337.399 2.30843L300.832 294.847L415.506 23.043C439.247 32.9556 461.442 45.8318 481.628 61.2093L303.571 296.429L538.791 118.372C554.168 138.558 567.044 160.753 576.957 184.494L305.153 299.168L597.692 262.601C599.215 274.853 600 287.335 600 300C600 313.174 599.151 326.15 597.504 338.876L305.152 302.332L576.422 416.781C566.425 440.414 553.486 462.499 538.064 482.578L303.571 305.071L480.907 539.338C460.761 554.59 438.629 567.356 414.968 577.181L300.832 306.653L337.214 597.714C325.021 599.223 312.601 600 300 600C286.89 600 273.976 599.159 261.309 597.528L297.668 306.652L183.757 576.648C160.203 566.739 138.18 553.91 118.141 538.614L294.929 305.071L61.3855 481.859C46.0896 461.82 33.2606 439.797 23.3518 416.243Z" fill="url(#paint0_radial_312_2)"/>
<defs>
<radialGradient id="paint0_radial_312_2" cx="0" cy="0" r="1" gradientUnits="userSpaceOnUse" gradientTransform="translate(300 300) rotate(90) scale(300)">
<stop stop-opacity="0.08"/>
<stop offset="1" stop-opacity="0"/>
</radialGradient>
</defs>
</svg>
