<svg width="40" height="40" viewBox="0 0 40 40" fill="none" xmlns="http://www.w3.org/2000/svg">
<path d="M20 0C8.97207 0 0 8.97207 0 20C0 31.0279 8.97207 40 20 40C31.0279 40 40 31.0279 40 20C40 8.97208 31.0279 0 20 0ZM20 3C29.4066 3 37 10.5934 37 20C37 29.4066 29.4066 37 20 37C10.5934 37 3 29.4066 3 20C3 10.5934 10.5934 3 20 3ZM19.9766 8.97852C19.1489 8.99145 18.4881 9.67232 18.5 10.5V22.5C18.4924 23.041 18.7766 23.5441 19.2438 23.8168C19.7111 24.0895 20.2889 24.0895 20.7562 23.8168C21.2234 23.5441 21.5077 23.041 21.5 22.5V10.5C21.5058 10.0944 21.3471 9.7037 21.0601 9.41704C20.7731 9.13037 20.3822 8.97218 19.9766 8.97852H19.9766ZM20 27C18.8954 27 18 27.8954 18 29C18 30.1046 18.8954 31 20 31C21.1046 31 22 30.1046 22 29C22 27.8954 21.1046 27 20 27Z" fill="#DE2020"/>
</svg>
