<svg width="80" height="80" viewBox="0 0 80 80" fill="none" xmlns="http://www.w3.org/2000/svg">
<rect width="80" height="80" rx="16" fill="white"/>
<path d="M0 18H80V16C80 7.16344 72.8366 0 64 0H16C7.16344 0 0 7.16344 0 16V18Z" fill="#F6F6F6"/>
<g filter="url(#filter0_d_5415_8383)">
<circle cx="40" cy="18" r="10" fill="white"/>
</g>
<path d="M42.9398 16.175C42.8997 16.1341 42.8485 16.1137 42.7862 16.1137H41.6437C41.5679 15.7365 41.4254 15.4091 41.2161 15.1319H42.7728C42.8352 15.1319 42.8863 15.1114 42.9265 15.0706C42.9664 15.0297 42.9864 14.9774 42.9864 14.9138V14.2182C42.9864 14.1545 42.9664 14.1023 42.9265 14.0614C42.8863 14.0205 42.8352 14 42.7727 14H37.2138C37.1514 14 37.1002 14.0205 37.0601 14.0613C37.0201 14.1023 37 14.1545 37 14.2182V15.125C37 15.184 37.0212 15.2352 37.0635 15.2783C37.1058 15.3215 37.1559 15.3431 37.2138 15.3431H38.1826C39.1224 15.3431 39.7193 15.5999 39.9732 16.1135H37.2138C37.1514 16.1135 37.1001 16.134 37.0601 16.1749C37.0201 16.2158 37 16.268 37 16.3317V17.0272C37 17.0908 37.02 17.1431 37.0601 17.1839C37.1002 17.2249 37.1515 17.2453 37.2138 17.2453H40.0668C39.9688 17.6181 39.7405 17.9021 39.3819 18.0976C39.0233 18.2931 38.5501 18.3908 37.9621 18.3908H37.2138C37.1559 18.3908 37.1058 18.4124 37.0635 18.4556C37.0211 18.4988 37 18.5499 37 18.609V19.475C37 19.5341 37.02 19.5841 37.0601 19.625C37.9153 20.5522 39.0244 21.8499 40.3875 23.5182C40.4276 23.5728 40.4832 23.6 40.5545 23.6H41.8574C41.951 23.6 42.0156 23.5592 42.0512 23.4772C42.0957 23.3954 42.087 23.3181 42.0244 23.2454C40.7239 21.6181 39.7016 20.3999 38.9577 19.5908C39.7149 19.5 40.3296 19.2499 40.8018 18.8409C41.2739 18.4318 41.5612 17.8999 41.6637 17.2454H42.7862C42.8485 17.2454 42.8998 17.225 42.9398 17.184C42.9799 17.1432 43 17.0909 43 17.0273V16.3319C43 16.2681 42.9799 16.2159 42.9398 16.175Z" fill="black"/>
<rect x="19" y="69" width="42" height="2" rx="1" fill="#F6F6F6"/>
<path d="M19.3873 57V43.35C19.2613 43.42 19.0863 43.497 18.8623 43.581C18.6523 43.651 18.4213 43.735 18.1693 43.833C17.9173 43.917 17.6793 44.001 17.4553 44.085C17.2313 44.155 17.0563 44.218 16.9303 44.274V41.88C17.0983 41.796 17.3223 41.684 17.6023 41.544C17.8963 41.404 18.2043 41.25 18.5263 41.082C18.8483 40.914 19.1493 40.732 19.4293 40.536C19.7233 40.34 19.9473 40.158 20.1013 39.99H22.6213V57H19.3873Z" fill="url(#paint0_linear_5415_8383)"/>
<path d="M25.9949 59.898L25.7429 58.827C26.1069 58.715 26.4359 58.519 26.7299 58.239C27.0239 57.973 27.1709 57.56 27.1709 57H25.5119V53.934H28.5569V56.643C28.5429 57.623 28.3259 58.386 27.9059 58.932C27.4859 59.478 26.8489 59.8 25.9949 59.898Z" fill="url(#paint1_linear_5415_8383)"/>
<path d="M35.0787 57.294C34.0567 57.294 33.2097 57.084 32.5377 56.664C31.8657 56.244 31.3617 55.67 31.0257 54.942C30.6897 54.2 30.5217 53.346 30.5217 52.38V44.757C30.5217 43.763 30.6827 42.895 31.0047 42.153C31.3267 41.397 31.8237 40.809 32.4957 40.389C33.1677 39.969 34.0287 39.759 35.0787 39.759C36.1147 39.759 36.9617 39.969 37.6197 40.389C38.2917 40.809 38.7887 41.397 39.1107 42.153C39.4327 42.895 39.5937 43.763 39.5937 44.757V52.38C39.5937 53.346 39.4257 54.2 39.0897 54.942C38.7537 55.67 38.2497 56.244 37.5777 56.664C36.9057 57.084 36.0727 57.294 35.0787 57.294ZM35.0787 54.438C35.4567 54.438 35.7297 54.319 35.8977 54.081C36.0657 53.843 36.1777 53.563 36.2337 53.241C36.2897 52.905 36.3177 52.597 36.3177 52.317V44.82C36.3177 44.512 36.2897 44.19 36.2337 43.854C36.1917 43.518 36.0867 43.231 35.9187 42.993C35.7507 42.741 35.4707 42.615 35.0787 42.615C34.6867 42.615 34.3997 42.741 34.2177 42.993C34.0497 43.231 33.9377 43.518 33.8817 43.854C33.8397 44.19 33.8187 44.512 33.8187 44.82V52.317C33.8187 52.597 33.8467 52.905 33.9027 53.241C33.9587 53.563 34.0777 53.843 34.2597 54.081C34.4417 54.319 34.7147 54.438 35.0787 54.438Z" fill="url(#paint2_linear_5415_8383)"/>
<path d="M46.481 57.294C45.459 57.294 44.612 57.084 43.94 56.664C43.268 56.244 42.764 55.67 42.428 54.942C42.092 54.2 41.924 53.346 41.924 52.38V44.757C41.924 43.763 42.085 42.895 42.407 42.153C42.729 41.397 43.226 40.809 43.898 40.389C44.57 39.969 45.431 39.759 46.481 39.759C47.517 39.759 48.364 39.969 49.022 40.389C49.694 40.809 50.191 41.397 50.513 42.153C50.835 42.895 50.996 43.763 50.996 44.757V52.38C50.996 53.346 50.828 54.2 50.492 54.942C50.156 55.67 49.652 56.244 48.98 56.664C48.308 57.084 47.475 57.294 46.481 57.294ZM46.481 54.438C46.859 54.438 47.132 54.319 47.3 54.081C47.468 53.843 47.58 53.563 47.636 53.241C47.692 52.905 47.72 52.597 47.72 52.317V44.82C47.72 44.512 47.692 44.19 47.636 43.854C47.594 43.518 47.489 43.231 47.321 42.993C47.153 42.741 46.873 42.615 46.481 42.615C46.089 42.615 45.802 42.741 45.62 42.993C45.452 43.231 45.34 43.518 45.284 43.854C45.242 44.19 45.221 44.512 45.221 44.82V52.317C45.221 52.597 45.249 52.905 45.305 53.241C45.361 53.563 45.48 53.843 45.662 54.081C45.844 54.319 46.117 54.438 46.481 54.438Z" fill="url(#paint3_linear_5415_8383)"/>
<path d="M57.8834 57.294C56.8614 57.294 56.0144 57.084 55.3424 56.664C54.6704 56.244 54.1664 55.67 53.8304 54.942C53.4944 54.2 53.3264 53.346 53.3264 52.38V44.757C53.3264 43.763 53.4874 42.895 53.8094 42.153C54.1314 41.397 54.6284 40.809 55.3004 40.389C55.9724 39.969 56.8334 39.759 57.8834 39.759C58.9194 39.759 59.7664 39.969 60.4244 40.389C61.0964 40.809 61.5934 41.397 61.9154 42.153C62.2374 42.895 62.3984 43.763 62.3984 44.757V52.38C62.3984 53.346 62.2304 54.2 61.8944 54.942C61.5584 55.67 61.0544 56.244 60.3824 56.664C59.7104 57.084 58.8774 57.294 57.8834 57.294ZM57.8834 54.438C58.2614 54.438 58.5344 54.319 58.7024 54.081C58.8704 53.843 58.9824 53.563 59.0384 53.241C59.0944 52.905 59.1224 52.597 59.1224 52.317V44.82C59.1224 44.512 59.0944 44.19 59.0384 43.854C58.9964 43.518 58.8914 43.231 58.7234 42.993C58.5554 42.741 58.2754 42.615 57.8834 42.615C57.4914 42.615 57.2044 42.741 57.0224 42.993C56.8544 43.231 56.7424 43.518 56.6864 43.854C56.6444 44.19 56.6234 44.512 56.6234 44.82V52.317C56.6234 52.597 56.6514 52.905 56.7074 53.241C56.7634 53.563 56.8824 53.843 57.0644 54.081C57.2464 54.319 57.5194 54.438 57.8834 54.438Z" fill="url(#paint4_linear_5415_8383)"/>
<defs>
<filter id="filter0_d_5415_8383" x="22" y="4" width="36" height="36" filterUnits="userSpaceOnUse" color-interpolation-filters="sRGB">
<feFlood flood-opacity="0" result="BackgroundImageFix"/>
<feColorMatrix in="SourceAlpha" type="matrix" values="0 0 0 0 0 0 0 0 0 0 0 0 0 0 0 0 0 0 127 0" result="hardAlpha"/>
<feOffset dy="4"/>
<feGaussianBlur stdDeviation="4"/>
<feComposite in2="hardAlpha" operator="out"/>
<feColorMatrix type="matrix" values="0 0 0 0 0 0 0 0 0 0 0 0 0 0 0 0 0 0 0.1 0"/>
<feBlend mode="normal" in2="BackgroundImageFix" result="effect1_dropShadow_5415_8383"/>
<feBlend mode="normal" in="SourceGraphic" in2="effect1_dropShadow_5415_8383" result="shape"/>
</filter>
<linearGradient id="paint0_linear_5415_8383" x1="-7.12401" y1="47.5" x2="21.5707" y2="90.3088" gradientUnits="userSpaceOnUse">
<stop stop-color="#DE206A"/>
<stop offset="0.996625" stop-color="#FF5858"/>
<stop offset="1" stop-color="#FF5858"/>
</linearGradient>
<linearGradient id="paint1_linear_5415_8383" x1="-7.12401" y1="47.5" x2="21.5707" y2="90.3088" gradientUnits="userSpaceOnUse">
<stop stop-color="#DE206A"/>
<stop offset="0.996625" stop-color="#FF5858"/>
<stop offset="1" stop-color="#FF5858"/>
</linearGradient>
<linearGradient id="paint2_linear_5415_8383" x1="-7.12401" y1="47.5" x2="21.5707" y2="90.3088" gradientUnits="userSpaceOnUse">
<stop stop-color="#DE206A"/>
<stop offset="0.996625" stop-color="#FF5858"/>
<stop offset="1" stop-color="#FF5858"/>
</linearGradient>
<linearGradient id="paint3_linear_5415_8383" x1="-7.12401" y1="47.5" x2="21.5707" y2="90.3088" gradientUnits="userSpaceOnUse">
<stop stop-color="#DE206A"/>
<stop offset="0.996625" stop-color="#FF5858"/>
<stop offset="1" stop-color="#FF5858"/>
</linearGradient>
<linearGradient id="paint4_linear_5415_8383" x1="-7.12401" y1="47.5" x2="21.5707" y2="90.3088" gradientUnits="userSpaceOnUse">
<stop stop-color="#DE206A"/>
<stop offset="0.996625" stop-color="#FF5858"/>
<stop offset="1" stop-color="#FF5858"/>
</linearGradient>
</defs>
</svg>
