<svg width="80" height="80" viewBox="0 0 80 80" fill="none" xmlns="http://www.w3.org/2000/svg">
<rect width="80" height="80" rx="16" fill="white"/>
<path d="M0 18H80V16C80 7.16344 72.8366 0 64 0H16C7.16344 0 0 7.16344 0 16V18Z" fill="#F6F6F6"/>
<g filter="url(#filter0_d_5415_8391)">
<circle cx="40" cy="18" r="10" fill="white"/>
</g>
<path d="M42.9398 16.175C42.8997 16.1341 42.8485 16.1137 42.7862 16.1137H41.6437C41.5679 15.7365 41.4254 15.4091 41.2161 15.1319H42.7728C42.8352 15.1319 42.8863 15.1114 42.9265 15.0706C42.9664 15.0297 42.9864 14.9774 42.9864 14.9138V14.2182C42.9864 14.1545 42.9664 14.1023 42.9265 14.0614C42.8863 14.0205 42.8352 14 42.7727 14H37.2138C37.1514 14 37.1002 14.0205 37.0601 14.0613C37.0201 14.1023 37 14.1545 37 14.2182V15.125C37 15.184 37.0212 15.2352 37.0635 15.2783C37.1058 15.3215 37.1559 15.3431 37.2138 15.3431H38.1826C39.1224 15.3431 39.7193 15.5999 39.9732 16.1135H37.2138C37.1514 16.1135 37.1001 16.134 37.0601 16.1749C37.0201 16.2158 37 16.268 37 16.3317V17.0272C37 17.0908 37.02 17.1431 37.0601 17.1839C37.1002 17.2249 37.1515 17.2453 37.2138 17.2453H40.0668C39.9688 17.6181 39.7405 17.9021 39.3819 18.0976C39.0233 18.2931 38.5501 18.3908 37.9621 18.3908H37.2138C37.1559 18.3908 37.1058 18.4124 37.0635 18.4556C37.0211 18.4988 37 18.5499 37 18.609V19.475C37 19.5341 37.02 19.5841 37.0601 19.625C37.9153 20.5522 39.0244 21.8499 40.3875 23.5182C40.4276 23.5728 40.4832 23.6 40.5545 23.6H41.8574C41.951 23.6 42.0156 23.5592 42.0512 23.4772C42.0957 23.3954 42.087 23.3181 42.0244 23.2454C40.7239 21.6181 39.7016 20.3999 38.9577 19.5908C39.7149 19.5 40.3296 19.2499 40.8018 18.8409C41.2739 18.4318 41.5612 17.8999 41.6637 17.2454H42.7862C42.8485 17.2454 42.8998 17.225 42.9398 17.184C42.9799 17.1432 43 17.0909 43 17.0273V16.3319C43 16.2681 42.9799 16.2159 42.9398 16.175Z" fill="black"/>
<rect x="19" y="69" width="42" height="2" rx="1" fill="#F6F6F6"/>
<path d="M27.9673 57V43.35C27.8413 43.42 27.6663 43.497 27.4423 43.581C27.2323 43.651 27.0013 43.735 26.7493 43.833C26.4973 43.917 26.2593 44.001 26.0353 44.085C25.8113 44.155 25.6363 44.218 25.5103 44.274V41.88C25.6783 41.796 25.9023 41.684 26.1823 41.544C26.4763 41.404 26.7843 41.25 27.1063 41.082C27.4283 40.914 27.7293 40.732 28.0093 40.536C28.3033 40.34 28.5273 40.158 28.6813 39.99H31.2013V57H27.9673Z" fill="url(#paint0_linear_5415_8391)"/>
<path d="M38.901 57.294C37.879 57.294 37.032 57.084 36.36 56.664C35.688 56.244 35.184 55.67 34.848 54.942C34.512 54.2 34.344 53.346 34.344 52.38V44.757C34.344 43.763 34.505 42.895 34.827 42.153C35.149 41.397 35.646 40.809 36.318 40.389C36.99 39.969 37.851 39.759 38.901 39.759C39.937 39.759 40.784 39.969 41.442 40.389C42.114 40.809 42.611 41.397 42.933 42.153C43.255 42.895 43.416 43.763 43.416 44.757V52.38C43.416 53.346 43.248 54.2 42.912 54.942C42.576 55.67 42.072 56.244 41.4 56.664C40.728 57.084 39.895 57.294 38.901 57.294ZM38.901 54.438C39.279 54.438 39.552 54.319 39.72 54.081C39.888 53.843 40 53.563 40.056 53.241C40.112 52.905 40.14 52.597 40.14 52.317V44.82C40.14 44.512 40.112 44.19 40.056 43.854C40.014 43.518 39.909 43.231 39.741 42.993C39.573 42.741 39.293 42.615 38.901 42.615C38.509 42.615 38.222 42.741 38.04 42.993C37.872 43.231 37.76 43.518 37.704 43.854C37.662 44.19 37.641 44.512 37.641 44.82V52.317C37.641 52.597 37.669 52.905 37.725 53.241C37.781 53.563 37.9 53.843 38.082 54.081C38.264 54.319 38.537 54.438 38.901 54.438Z" fill="url(#paint1_linear_5415_8391)"/>
<path d="M50.3033 57.294C49.2813 57.294 48.4343 57.084 47.7623 56.664C47.0903 56.244 46.5863 55.67 46.2503 54.942C45.9143 54.2 45.7463 53.346 45.7463 52.38V44.757C45.7463 43.763 45.9073 42.895 46.2293 42.153C46.5513 41.397 47.0483 40.809 47.7203 40.389C48.3923 39.969 49.2533 39.759 50.3033 39.759C51.3393 39.759 52.1863 39.969 52.8443 40.389C53.5163 40.809 54.0133 41.397 54.3353 42.153C54.6573 42.895 54.8183 43.763 54.8183 44.757V52.38C54.8183 53.346 54.6503 54.2 54.3143 54.942C53.9783 55.67 53.4743 56.244 52.8023 56.664C52.1303 57.084 51.2973 57.294 50.3033 57.294ZM50.3033 54.438C50.6813 54.438 50.9543 54.319 51.1223 54.081C51.2903 53.843 51.4023 53.563 51.4583 53.241C51.5143 52.905 51.5423 52.597 51.5423 52.317V44.82C51.5423 44.512 51.5143 44.19 51.4583 43.854C51.4163 43.518 51.3113 43.231 51.1433 42.993C50.9753 42.741 50.6953 42.615 50.3033 42.615C49.9113 42.615 49.6243 42.741 49.4423 42.993C49.2743 43.231 49.1623 43.518 49.1063 43.854C49.0643 44.19 49.0433 44.512 49.0433 44.82V52.317C49.0433 52.597 49.0713 52.905 49.1273 53.241C49.1833 53.563 49.3023 53.843 49.4843 54.081C49.6663 54.319 49.9393 54.438 50.3033 54.438Z" fill="url(#paint2_linear_5415_8391)"/>
<defs>
<filter id="filter0_d_5415_8391" x="22" y="4" width="36" height="36" filterUnits="userSpaceOnUse" color-interpolation-filters="sRGB">
<feFlood flood-opacity="0" result="BackgroundImageFix"/>
<feColorMatrix in="SourceAlpha" type="matrix" values="0 0 0 0 0 0 0 0 0 0 0 0 0 0 0 0 0 0 127 0" result="hardAlpha"/>
<feOffset dy="4"/>
<feGaussianBlur stdDeviation="4"/>
<feComposite in2="hardAlpha" operator="out"/>
<feColorMatrix type="matrix" values="0 0 0 0 0 0 0 0 0 0 0 0 0 0 0 0 0 0 0.1 0"/>
<feBlend mode="normal" in2="BackgroundImageFix" result="effect1_dropShadow_5415_8391"/>
<feBlend mode="normal" in="SourceGraphic" in2="effect1_dropShadow_5415_8391" result="shape"/>
</filter>
<linearGradient id="paint0_linear_5415_8391" x1="10.0657" y1="47.5" x2="41.0657" y2="77.3685" gradientUnits="userSpaceOnUse">
<stop stop-color="#DE206A"/>
<stop offset="0.996625" stop-color="#FF5858"/>
<stop offset="1" stop-color="#FF5858"/>
</linearGradient>
<linearGradient id="paint1_linear_5415_8391" x1="10.0657" y1="47.5" x2="41.0657" y2="77.3685" gradientUnits="userSpaceOnUse">
<stop stop-color="#DE206A"/>
<stop offset="0.996625" stop-color="#FF5858"/>
<stop offset="1" stop-color="#FF5858"/>
</linearGradient>
<linearGradient id="paint2_linear_5415_8391" x1="10.0657" y1="47.5" x2="41.0657" y2="77.3685" gradientUnits="userSpaceOnUse">
<stop stop-color="#DE206A"/>
<stop offset="0.996625" stop-color="#FF5858"/>
<stop offset="1" stop-color="#FF5858"/>
</linearGradient>
</defs>
</svg>
