<svg width="80" height="87" viewBox="0 0 80 87" fill="none" xmlns="http://www.w3.org/2000/svg">
<rect width="80" height="80" rx="16" fill="white"/>
<path d="M0 18H80V16C80 7.16344 72.8366 0 64 0H16C7.16344 0 0 7.16344 0 16V18Z" fill="#F6F6F6"/>
<circle cx="40" cy="18" r="10" fill="url(#paint0_linear_5415_8367)"/>
<path d="M42.9398 16.175C42.8997 16.1341 42.8485 16.1137 42.7862 16.1137H41.6437C41.5679 15.7365 41.4254 15.4091 41.2161 15.1319H42.7728C42.8352 15.1319 42.8863 15.1114 42.9265 15.0706C42.9664 15.0297 42.9864 14.9774 42.9864 14.9138V14.2182C42.9864 14.1545 42.9664 14.1023 42.9265 14.0614C42.8863 14.0205 42.8352 14 42.7727 14H37.2138C37.1514 14 37.1002 14.0205 37.0601 14.0613C37.0201 14.1023 37 14.1545 37 14.2182V15.125C37 15.184 37.0212 15.2352 37.0635 15.2783C37.1058 15.3215 37.1559 15.3431 37.2138 15.3431H38.1826C39.1224 15.3431 39.7193 15.5999 39.9732 16.1135H37.2138C37.1514 16.1135 37.1001 16.134 37.0601 16.1749C37.0201 16.2158 37 16.268 37 16.3317V17.0272C37 17.0908 37.02 17.1431 37.0601 17.1839C37.1002 17.2249 37.1515 17.2453 37.2138 17.2453H40.0668C39.9688 17.6181 39.7405 17.9021 39.3819 18.0976C39.0233 18.2931 38.5501 18.3908 37.9621 18.3908H37.2138C37.1559 18.3908 37.1058 18.4124 37.0635 18.4556C37.0211 18.4988 37 18.5499 37 18.609V19.475C37 19.5341 37.02 19.5841 37.0601 19.625C37.9153 20.5522 39.0244 21.8499 40.3875 23.5182C40.4276 23.5728 40.4832 23.6 40.5545 23.6H41.8574C41.951 23.6 42.0156 23.5592 42.0512 23.4772C42.0957 23.3954 42.087 23.3181 42.0244 23.2454C40.7239 21.6181 39.7016 20.3999 38.9577 19.5908C39.7149 19.5 40.3296 19.2499 40.8018 18.8409C41.2739 18.4318 41.5612 17.8999 41.6637 17.2454H42.7862C42.8485 17.2454 42.8998 17.225 42.9398 17.184C42.9799 17.1432 43 17.0909 43 17.0273V16.3319C43 16.2681 42.9799 16.2159 42.9398 16.175Z" fill="white"/>
<g filter="url(#filter0_d_5415_8367)">
<rect x="19" y="69" width="42" height="2" rx="1" fill="#E83066"/>
</g>
<path d="M20.5391 57.294C19.3491 57.294 18.4391 57.077 17.8091 56.643C17.1791 56.209 16.7451 55.6 16.5071 54.816C16.2831 54.032 16.1711 53.115 16.1711 52.065H19.3001C19.3001 52.681 19.3351 53.199 19.4051 53.619C19.4891 54.039 19.6291 54.354 19.8251 54.564C20.0351 54.774 20.3431 54.872 20.7491 54.858C21.1551 54.844 21.4491 54.69 21.6311 54.396C21.8131 54.102 21.9251 53.682 21.9671 53.136C22.0091 52.59 22.0301 51.946 22.0301 51.204C22.0301 50.602 21.9951 50.07 21.9251 49.608C21.8551 49.146 21.7151 48.782 21.5051 48.516C21.3091 48.25 21.0011 48.117 20.5811 48.117C20.2031 48.117 19.8881 48.25 19.6361 48.516C19.3981 48.782 19.2231 49.16 19.1111 49.65H16.3391L16.5701 39.99H24.3821V42.783H19.2371L19.0481 46.542C19.2161 46.332 19.4961 46.15 19.8881 45.996C20.2941 45.842 20.7281 45.751 21.1901 45.723C22.0721 45.639 22.8001 45.807 23.3741 46.227C23.9621 46.647 24.3961 47.27 24.6761 48.096C24.9561 48.908 25.0961 49.902 25.0961 51.078C25.0961 51.974 25.0401 52.807 24.9281 53.577C24.8161 54.333 24.5991 54.991 24.2771 55.551C23.9551 56.097 23.4931 56.524 22.8911 56.832C22.2891 57.14 21.5051 57.294 20.5391 57.294Z" fill="black"/>
<path d="M27.1741 59.898L26.9221 58.827C27.2861 58.715 27.6151 58.519 27.9091 58.239C28.2031 57.973 28.3501 57.56 28.3501 57H26.6911V53.934H29.7361V56.643C29.7221 57.623 29.5051 58.386 29.0851 58.932C28.6651 59.478 28.0281 59.8 27.1741 59.898Z" fill="black"/>
<path d="M36.2579 57.294C35.2359 57.294 34.3889 57.084 33.7169 56.664C33.0449 56.244 32.5409 55.67 32.2049 54.942C31.8689 54.2 31.7009 53.346 31.7009 52.38V44.757C31.7009 43.763 31.8619 42.895 32.1839 42.153C32.5059 41.397 33.0029 40.809 33.6749 40.389C34.3469 39.969 35.2079 39.759 36.2579 39.759C37.2939 39.759 38.1409 39.969 38.7989 40.389C39.4709 40.809 39.9679 41.397 40.2899 42.153C40.6119 42.895 40.7729 43.763 40.7729 44.757V52.38C40.7729 53.346 40.6049 54.2 40.2689 54.942C39.9329 55.67 39.4289 56.244 38.7569 56.664C38.0849 57.084 37.2519 57.294 36.2579 57.294ZM36.2579 54.438C36.6359 54.438 36.9089 54.319 37.0769 54.081C37.2449 53.843 37.3569 53.563 37.4129 53.241C37.4689 52.905 37.4969 52.597 37.4969 52.317V44.82C37.4969 44.512 37.4689 44.19 37.4129 43.854C37.3709 43.518 37.2659 43.231 37.0979 42.993C36.9299 42.741 36.6499 42.615 36.2579 42.615C35.8659 42.615 35.5789 42.741 35.3969 42.993C35.2289 43.231 35.1169 43.518 35.0609 43.854C35.0189 44.19 34.9979 44.512 34.9979 44.82V52.317C34.9979 52.597 35.0259 52.905 35.0819 53.241C35.1379 53.563 35.2569 53.843 35.4389 54.081C35.6209 54.319 35.8939 54.438 36.2579 54.438Z" fill="black"/>
<path d="M47.6602 57.294C46.6382 57.294 45.7912 57.084 45.1192 56.664C44.4472 56.244 43.9432 55.67 43.6072 54.942C43.2712 54.2 43.1032 53.346 43.1032 52.38V44.757C43.1032 43.763 43.2642 42.895 43.5862 42.153C43.9082 41.397 44.4052 40.809 45.0772 40.389C45.7492 39.969 46.6102 39.759 47.6602 39.759C48.6962 39.759 49.5432 39.969 50.2012 40.389C50.8732 40.809 51.3702 41.397 51.6922 42.153C52.0142 42.895 52.1752 43.763 52.1752 44.757V52.38C52.1752 53.346 52.0072 54.2 51.6712 54.942C51.3352 55.67 50.8312 56.244 50.1592 56.664C49.4872 57.084 48.6542 57.294 47.6602 57.294ZM47.6602 54.438C48.0382 54.438 48.3112 54.319 48.4792 54.081C48.6472 53.843 48.7592 53.563 48.8152 53.241C48.8712 52.905 48.8992 52.597 48.8992 52.317V44.82C48.8992 44.512 48.8712 44.19 48.8152 43.854C48.7732 43.518 48.6682 43.231 48.5002 42.993C48.3322 42.741 48.0522 42.615 47.6602 42.615C47.2682 42.615 46.9812 42.741 46.7992 42.993C46.6312 43.231 46.5192 43.518 46.4632 43.854C46.4212 44.19 46.4002 44.512 46.4002 44.82V52.317C46.4002 52.597 46.4282 52.905 46.4842 53.241C46.5402 53.563 46.6592 53.843 46.8412 54.081C47.0232 54.319 47.2962 54.438 47.6602 54.438Z" fill="black"/>
<path d="M59.0626 57.294C58.0406 57.294 57.1936 57.084 56.5216 56.664C55.8496 56.244 55.3456 55.67 55.0096 54.942C54.6736 54.2 54.5056 53.346 54.5056 52.38V44.757C54.5056 43.763 54.6666 42.895 54.9886 42.153C55.3106 41.397 55.8076 40.809 56.4796 40.389C57.1516 39.969 58.0126 39.759 59.0626 39.759C60.0986 39.759 60.9456 39.969 61.6036 40.389C62.2756 40.809 62.7726 41.397 63.0946 42.153C63.4166 42.895 63.5776 43.763 63.5776 44.757V52.38C63.5776 53.346 63.4096 54.2 63.0736 54.942C62.7376 55.67 62.2336 56.244 61.5616 56.664C60.8896 57.084 60.0566 57.294 59.0626 57.294ZM59.0626 54.438C59.4406 54.438 59.7136 54.319 59.8816 54.081C60.0496 53.843 60.1616 53.563 60.2176 53.241C60.2736 52.905 60.3016 52.597 60.3016 52.317V44.82C60.3016 44.512 60.2736 44.19 60.2176 43.854C60.1756 43.518 60.0706 43.231 59.9026 42.993C59.7346 42.741 59.4546 42.615 59.0626 42.615C58.6706 42.615 58.3836 42.741 58.2016 42.993C58.0336 43.231 57.9216 43.518 57.8656 43.854C57.8236 44.19 57.8026 44.512 57.8026 44.82V52.317C57.8026 52.597 57.8306 52.905 57.8866 53.241C57.9426 53.563 58.0616 53.843 58.2436 54.081C58.4256 54.319 58.6986 54.438 59.0626 54.438Z" fill="black"/>
<defs>
<filter id="filter0_d_5415_8367" x="7" y="61" width="66" height="26" filterUnits="userSpaceOnUse" color-interpolation-filters="sRGB">
<feFlood flood-opacity="0" result="BackgroundImageFix"/>
<feColorMatrix in="SourceAlpha" type="matrix" values="0 0 0 0 0 0 0 0 0 0 0 0 0 0 0 0 0 0 127 0" result="hardAlpha"/>
<feOffset dy="4"/>
<feGaussianBlur stdDeviation="6"/>
<feComposite in2="hardAlpha" operator="out"/>
<feColorMatrix type="matrix" values="0 0 0 0 0 0 0 0 0 0 0 0 0 0 0 0 0 0 0.2 0"/>
<feBlend mode="normal" in2="BackgroundImageFix" result="effect1_dropShadow_5415_8367"/>
<feBlend mode="normal" in="SourceGraphic" in2="effect1_dropShadow_5415_8367" result="shape"/>
</filter>
<linearGradient id="paint0_linear_5415_8367" x1="20.365" y1="18" x2="40.365" y2="37.27" gradientUnits="userSpaceOnUse">
<stop stop-color="#DE206A"/>
<stop offset="0.996625" stop-color="#FF5858"/>
<stop offset="1" stop-color="#FF5858"/>
</linearGradient>
</defs>
</svg>
