<svg width="80" height="80" viewBox="0 0 80 80" fill="none" xmlns="http://www.w3.org/2000/svg">
<rect width="80" height="80" rx="16" fill="white"/>
<path d="M0 18H80V16C80 7.16344 72.8366 0 64 0H16C7.16344 0 0 7.16344 0 16V18Z" fill="#F6F6F6"/>
<g filter="url(#filter0_d_5415_8375)">
<circle cx="40" cy="18" r="10" fill="white"/>
</g>
<path d="M42.9398 16.175C42.8997 16.1341 42.8485 16.1137 42.7862 16.1137H41.6437C41.5679 15.7365 41.4254 15.4091 41.2161 15.1319H42.7728C42.8352 15.1319 42.8863 15.1114 42.9265 15.0706C42.9664 15.0297 42.9864 14.9774 42.9864 14.9138V14.2182C42.9864 14.1545 42.9664 14.1023 42.9265 14.0614C42.8863 14.0205 42.8352 14 42.7727 14H37.2138C37.1514 14 37.1002 14.0205 37.0601 14.0613C37.0201 14.1023 37 14.1545 37 14.2182V15.125C37 15.184 37.0212 15.2352 37.0635 15.2783C37.1058 15.3215 37.1559 15.3431 37.2138 15.3431H38.1826C39.1224 15.3431 39.7193 15.5999 39.9732 16.1135H37.2138C37.1514 16.1135 37.1001 16.134 37.0601 16.1749C37.0201 16.2158 37 16.268 37 16.3317V17.0272C37 17.0908 37.02 17.1431 37.0601 17.1839C37.1002 17.2249 37.1515 17.2453 37.2138 17.2453H40.0668C39.9688 17.6181 39.7405 17.9021 39.3819 18.0976C39.0233 18.2931 38.5501 18.3908 37.9621 18.3908H37.2138C37.1559 18.3908 37.1058 18.4124 37.0635 18.4556C37.0211 18.4988 37 18.5499 37 18.609V19.475C37 19.5341 37.02 19.5841 37.0601 19.625C37.9153 20.5522 39.0244 21.8499 40.3875 23.5182C40.4276 23.5728 40.4832 23.6 40.5545 23.6H41.8574C41.951 23.6 42.0156 23.5592 42.0512 23.4772C42.0957 23.3954 42.087 23.3181 42.0244 23.2454C40.7239 21.6181 39.7016 20.3999 38.9577 19.5908C39.7149 19.5 40.3296 19.2499 40.8018 18.8409C41.2739 18.4318 41.5612 17.8999 41.6637 17.2454H42.7862C42.8485 17.2454 42.8998 17.225 42.9398 17.184C42.9799 17.1432 43 17.0909 43 17.0273V16.3319C43 16.2681 42.9799 16.2159 42.9398 16.175Z" fill="black"/>
<rect x="19" y="69" width="42" height="2" rx="1" fill="#F6F6F6"/>
<path d="M28.6191 57.294C27.4291 57.294 26.5191 57.077 25.8891 56.643C25.2591 56.209 24.8251 55.6 24.5871 54.816C24.3631 54.032 24.2511 53.115 24.2511 52.065H27.3801C27.3801 52.681 27.4151 53.199 27.4851 53.619C27.5691 54.039 27.7091 54.354 27.9051 54.564C28.1151 54.774 28.4231 54.872 28.8291 54.858C29.2351 54.844 29.5291 54.69 29.7111 54.396C29.8931 54.102 30.0051 53.682 30.0471 53.136C30.0891 52.59 30.1101 51.946 30.1101 51.204C30.1101 50.602 30.0751 50.07 30.0051 49.608C29.9351 49.146 29.7951 48.782 29.5851 48.516C29.3891 48.25 29.0811 48.117 28.6611 48.117C28.2831 48.117 27.9681 48.25 27.7161 48.516C27.4781 48.782 27.3031 49.16 27.1911 49.65H24.4191L24.6501 39.99H32.4621V42.783H27.3171L27.1281 46.542C27.2961 46.332 27.5761 46.15 27.9681 45.996C28.3741 45.842 28.8081 45.751 29.2701 45.723C30.1521 45.639 30.8801 45.807 31.4541 46.227C32.0421 46.647 32.4761 47.27 32.7561 48.096C33.0361 48.908 33.1761 49.902 33.1761 51.078C33.1761 51.974 33.1201 52.807 33.0081 53.577C32.8961 54.333 32.6791 54.991 32.3571 55.551C32.0351 56.097 31.5731 56.524 30.9711 56.832C30.3691 57.14 29.5851 57.294 28.6191 57.294Z" fill="url(#paint0_linear_5415_8375)"/>
<path d="M39.5802 57.294C38.5582 57.294 37.7112 57.084 37.0392 56.664C36.3672 56.244 35.8632 55.67 35.5272 54.942C35.1912 54.2 35.0232 53.346 35.0232 52.38V44.757C35.0232 43.763 35.1842 42.895 35.5062 42.153C35.8282 41.397 36.3252 40.809 36.9972 40.389C37.6692 39.969 38.5302 39.759 39.5802 39.759C40.6162 39.759 41.4632 39.969 42.1212 40.389C42.7932 40.809 43.2902 41.397 43.6122 42.153C43.9342 42.895 44.0952 43.763 44.0952 44.757V52.38C44.0952 53.346 43.9272 54.2 43.5912 54.942C43.2552 55.67 42.7512 56.244 42.0792 56.664C41.4072 57.084 40.5742 57.294 39.5802 57.294ZM39.5802 54.438C39.9582 54.438 40.2312 54.319 40.3992 54.081C40.5672 53.843 40.6792 53.563 40.7352 53.241C40.7912 52.905 40.8192 52.597 40.8192 52.317V44.82C40.8192 44.512 40.7912 44.19 40.7352 43.854C40.6932 43.518 40.5882 43.231 40.4202 42.993C40.2522 42.741 39.9722 42.615 39.5802 42.615C39.1882 42.615 38.9012 42.741 38.7192 42.993C38.5512 43.231 38.4392 43.518 38.3832 43.854C38.3412 44.19 38.3202 44.512 38.3202 44.82V52.317C38.3202 52.597 38.3482 52.905 38.4042 53.241C38.4602 53.563 38.5792 53.843 38.7612 54.081C38.9432 54.319 39.2162 54.438 39.5802 54.438Z" fill="url(#paint1_linear_5415_8375)"/>
<path d="M50.9825 57.294C49.9605 57.294 49.1135 57.084 48.4415 56.664C47.7695 56.244 47.2655 55.67 46.9295 54.942C46.5935 54.2 46.4255 53.346 46.4255 52.38V44.757C46.4255 43.763 46.5865 42.895 46.9085 42.153C47.2305 41.397 47.7275 40.809 48.3995 40.389C49.0715 39.969 49.9325 39.759 50.9825 39.759C52.0185 39.759 52.8655 39.969 53.5235 40.389C54.1955 40.809 54.6925 41.397 55.0145 42.153C55.3365 42.895 55.4975 43.763 55.4975 44.757V52.38C55.4975 53.346 55.3295 54.2 54.9935 54.942C54.6575 55.67 54.1535 56.244 53.4815 56.664C52.8095 57.084 51.9765 57.294 50.9825 57.294ZM50.9825 54.438C51.3605 54.438 51.6335 54.319 51.8015 54.081C51.9695 53.843 52.0815 53.563 52.1375 53.241C52.1935 52.905 52.2215 52.597 52.2215 52.317V44.82C52.2215 44.512 52.1935 44.19 52.1375 43.854C52.0955 43.518 51.9905 43.231 51.8225 42.993C51.6545 42.741 51.3745 42.615 50.9825 42.615C50.5905 42.615 50.3035 42.741 50.1215 42.993C49.9535 43.231 49.8415 43.518 49.7855 43.854C49.7435 44.19 49.7225 44.512 49.7225 44.82V52.317C49.7225 52.597 49.7505 52.905 49.8065 53.241C49.8625 53.563 49.9815 53.843 50.1635 54.081C50.3455 54.319 50.6185 54.438 50.9825 54.438Z" fill="url(#paint2_linear_5415_8375)"/>
<defs>
<filter id="filter0_d_5415_8375" x="22" y="4" width="36" height="36" filterUnits="userSpaceOnUse" color-interpolation-filters="sRGB">
<feFlood flood-opacity="0" result="BackgroundImageFix"/>
<feColorMatrix in="SourceAlpha" type="matrix" values="0 0 0 0 0 0 0 0 0 0 0 0 0 0 0 0 0 0 127 0" result="hardAlpha"/>
<feOffset dy="4"/>
<feGaussianBlur stdDeviation="4"/>
<feComposite in2="hardAlpha" operator="out"/>
<feColorMatrix type="matrix" values="0 0 0 0 0 0 0 0 0 0 0 0 0 0 0 0 0 0 0.1 0"/>
<feBlend mode="normal" in2="BackgroundImageFix" result="effect1_dropShadow_5415_8375"/>
<feBlend mode="normal" in="SourceGraphic" in2="effect1_dropShadow_5415_8375" result="shape"/>
</filter>
<linearGradient id="paint0_linear_5415_8375" x1="6.62056" y1="47.5" x2="37.5948" y2="80.2318" gradientUnits="userSpaceOnUse">
<stop stop-color="#DE206A"/>
<stop offset="0.996625" stop-color="#FF5858"/>
<stop offset="1" stop-color="#FF5858"/>
</linearGradient>
<linearGradient id="paint1_linear_5415_8375" x1="6.62056" y1="47.5" x2="37.5948" y2="80.2318" gradientUnits="userSpaceOnUse">
<stop stop-color="#DE206A"/>
<stop offset="0.996625" stop-color="#FF5858"/>
<stop offset="1" stop-color="#FF5858"/>
</linearGradient>
<linearGradient id="paint2_linear_5415_8375" x1="6.62056" y1="47.5" x2="37.5948" y2="80.2318" gradientUnits="userSpaceOnUse">
<stop stop-color="#DE206A"/>
<stop offset="0.996625" stop-color="#FF5858"/>
<stop offset="1" stop-color="#FF5858"/>
</linearGradient>
</defs>
</svg>
