<svg width="80" height="80" viewBox="0 0 80 80" fill="none" xmlns="http://www.w3.org/2000/svg">
<rect width="80" height="80" rx="16" fill="white"/>
<path d="M0 18H80V16C80 7.16344 72.8366 0 64 0H16C7.16344 0 0 7.16344 0 16V18Z" fill="#F6F6F6"/>
<g filter="url(#filter0_d_5415_8399)">
<circle cx="40" cy="18" r="10" fill="white"/>
</g>
<path d="M42.9398 16.175C42.8997 16.1341 42.8485 16.1137 42.7862 16.1137H41.6437C41.5679 15.7365 41.4254 15.4091 41.2161 15.1319H42.7728C42.8352 15.1319 42.8863 15.1114 42.9265 15.0706C42.9664 15.0297 42.9864 14.9774 42.9864 14.9138V14.2182C42.9864 14.1545 42.9664 14.1023 42.9265 14.0614C42.8863 14.0205 42.8352 14 42.7727 14H37.2138C37.1514 14 37.1002 14.0205 37.0601 14.0613C37.0201 14.1023 37 14.1545 37 14.2182V15.125C37 15.184 37.0212 15.2352 37.0635 15.2783C37.1058 15.3215 37.1559 15.3431 37.2138 15.3431H38.1826C39.1224 15.3431 39.7193 15.5999 39.9732 16.1135H37.2138C37.1514 16.1135 37.1001 16.134 37.0601 16.1749C37.0201 16.2158 37 16.268 37 16.3317V17.0272C37 17.0908 37.02 17.1431 37.0601 17.1839C37.1002 17.2249 37.1515 17.2453 37.2138 17.2453H40.0668C39.9688 17.6181 39.7405 17.9021 39.3819 18.0976C39.0233 18.2931 38.5501 18.3908 37.9621 18.3908H37.2138C37.1559 18.3908 37.1058 18.4124 37.0635 18.4556C37.0211 18.4988 37 18.5499 37 18.609V19.475C37 19.5341 37.02 19.5841 37.0601 19.625C37.9153 20.5522 39.0244 21.8499 40.3875 23.5182C40.4276 23.5728 40.4832 23.6 40.5545 23.6H41.8574C41.951 23.6 42.0156 23.5592 42.0512 23.4772C42.0957 23.3954 42.087 23.3181 42.0244 23.2454C40.7239 21.6181 39.7016 20.3999 38.9577 19.5908C39.7149 19.5 40.3296 19.2499 40.8018 18.8409C41.2739 18.4318 41.5612 17.8999 41.6637 17.2454H42.7862C42.8485 17.2454 42.8998 17.225 42.9398 17.184C42.9799 17.1432 43 17.0909 43 17.0273V16.3319C43 16.2681 42.9799 16.2159 42.9398 16.175Z" fill="black"/>
<rect x="19" y="69" width="42" height="2" rx="1" fill="#F6F6F6"/>
<path d="M34.3203 57.294C33.1303 57.294 32.2203 57.077 31.5903 56.643C30.9603 56.209 30.5263 55.6 30.2883 54.816C30.0643 54.032 29.9523 53.115 29.9523 52.065H33.0813C33.0813 52.681 33.1163 53.199 33.1863 53.619C33.2703 54.039 33.4103 54.354 33.6063 54.564C33.8163 54.774 34.1243 54.872 34.5303 54.858C34.9363 54.844 35.2303 54.69 35.4123 54.396C35.5943 54.102 35.7063 53.682 35.7483 53.136C35.7903 52.59 35.8113 51.946 35.8113 51.204C35.8113 50.602 35.7763 50.07 35.7063 49.608C35.6363 49.146 35.4963 48.782 35.2863 48.516C35.0903 48.25 34.7823 48.117 34.3623 48.117C33.9843 48.117 33.6693 48.25 33.4173 48.516C33.1793 48.782 33.0043 49.16 32.8923 49.65H30.1203L30.3513 39.99H38.1633V42.783H33.0183L32.8293 46.542C32.9973 46.332 33.2773 46.15 33.6693 45.996C34.0753 45.842 34.5093 45.751 34.9713 45.723C35.8533 45.639 36.5813 45.807 37.1553 46.227C37.7433 46.647 38.1773 47.27 38.4573 48.096C38.7373 48.908 38.8773 49.902 38.8773 51.078C38.8773 51.974 38.8213 52.807 38.7093 53.577C38.5973 54.333 38.3803 54.991 38.0583 55.551C37.7363 56.097 37.2743 56.524 36.6723 56.832C36.0703 57.14 35.2863 57.294 34.3203 57.294Z" fill="url(#paint0_linear_5415_8399)"/>
<path d="M45.2813 57.294C44.2593 57.294 43.4123 57.084 42.7403 56.664C42.0683 56.244 41.5643 55.67 41.2283 54.942C40.8923 54.2 40.7243 53.346 40.7243 52.38V44.757C40.7243 43.763 40.8853 42.895 41.2073 42.153C41.5293 41.397 42.0263 40.809 42.6983 40.389C43.3703 39.969 44.2313 39.759 45.2813 39.759C46.3173 39.759 47.1643 39.969 47.8223 40.389C48.4943 40.809 48.9913 41.397 49.3133 42.153C49.6353 42.895 49.7963 43.763 49.7963 44.757V52.38C49.7963 53.346 49.6283 54.2 49.2923 54.942C48.9563 55.67 48.4523 56.244 47.7803 56.664C47.1083 57.084 46.2753 57.294 45.2813 57.294ZM45.2813 54.438C45.6593 54.438 45.9323 54.319 46.1003 54.081C46.2683 53.843 46.3803 53.563 46.4363 53.241C46.4923 52.905 46.5203 52.597 46.5203 52.317V44.82C46.5203 44.512 46.4923 44.19 46.4363 43.854C46.3943 43.518 46.2893 43.231 46.1213 42.993C45.9533 42.741 45.6733 42.615 45.2813 42.615C44.8893 42.615 44.6023 42.741 44.4203 42.993C44.2523 43.231 44.1403 43.518 44.0843 43.854C44.0423 44.19 44.0213 44.512 44.0213 44.82V52.317C44.0213 52.597 44.0493 52.905 44.1053 53.241C44.1613 53.563 44.2803 53.843 44.4623 54.081C44.6443 54.319 44.9173 54.438 45.2813 54.438Z" fill="url(#paint1_linear_5415_8399)"/>
<defs>
<filter id="filter0_d_5415_8399" x="22" y="4" width="36" height="36" filterUnits="userSpaceOnUse" color-interpolation-filters="sRGB">
<feFlood flood-opacity="0" result="BackgroundImageFix"/>
<feColorMatrix in="SourceAlpha" type="matrix" values="0 0 0 0 0 0 0 0 0 0 0 0 0 0 0 0 0 0 127 0" result="hardAlpha"/>
<feOffset dy="4"/>
<feGaussianBlur stdDeviation="4"/>
<feComposite in2="hardAlpha" operator="out"/>
<feColorMatrix type="matrix" values="0 0 0 0 0 0 0 0 0 0 0 0 0 0 0 0 0 0 0.1 0"/>
<feBlend mode="normal" in2="BackgroundImageFix" result="effect1_dropShadow_5415_8399"/>
<feBlend mode="normal" in="SourceGraphic" in2="effect1_dropShadow_5415_8399" result="shape"/>
</filter>
<linearGradient id="paint0_linear_5415_8399" x1="18.4016" y1="47.5" x2="47.3092" y2="67.2663" gradientUnits="userSpaceOnUse">
<stop stop-color="#DE206A"/>
<stop offset="0.996625" stop-color="#FF5858"/>
<stop offset="1" stop-color="#FF5858"/>
</linearGradient>
<linearGradient id="paint1_linear_5415_8399" x1="18.4016" y1="47.5" x2="47.3092" y2="67.2663" gradientUnits="userSpaceOnUse">
<stop stop-color="#DE206A"/>
<stop offset="0.996625" stop-color="#FF5858"/>
<stop offset="1" stop-color="#FF5858"/>
</linearGradient>
</defs>
</svg>
