<svg width="80" height="80" viewBox="0 0 80 80" fill="none" xmlns="http://www.w3.org/2000/svg">
<rect width="80" height="80" rx="16" fill="white"/>
<path d="M39.2 55.4C38.4 55.4 37.72 55.12 37.2 54.6C36.68 54.08 36.4 53.4 36.4 52.6C36.4 51.8 36.68 51.12 37.2 50.6C37.72 50.08 38.4 49.8 39.2 49.8C40 49.8 40.68 50.08 41.2 50.6C41.72 51.12 42 51.8 42 52.6C42 53.4 41.72 54.08 41.2 54.6C40.68 55.12 40 55.4 39.2 55.4ZM37.5337 47C37.2201 47 36.9415 46.7876 36.88 46.48C36.84 46.32 36.84 46.12 36.84 45.92C36.8 45.72 36.8 45.48 36.8 45.2C36.8 44.28 37 43.44 37.36 42.76C37.72 42.08 38.16 41.48 38.68 40.96C39.2 40.44 39.8 39.92 40.4 39.48C41 39.04 41.6 38.56 42.12 38.12C42.64 37.68 43.12 37.16 43.48 36.64C43.84 36.12 44 35.48 44 34.8C44 33.8 43.64 32.92 42.88 32.24C42.12 31.56 41.12 31.2 39.8 31.2C38.72 31.2 37.84 31.4 37.16 31.8C36.48 32.2 35.88 32.64 35.44 33.12C35.1429 33.44 34.8849 33.7861 34.6587 34.1508C34.3748 34.6086 33.8076 34.8318 33.3124 34.6196L30.8622 33.5695C30.3774 33.3617 30.1319 32.8101 30.3533 32.3313C30.7622 31.4467 31.2919 30.6488 31.96 29.92C32.32 29.52 32.76 29.12 33.28 28.72C33.76 28.32 34.32 27.96 34.96 27.64C35.6 27.32 36.32 27.08 37.12 26.88C37.92 26.68 38.8 26.6 39.8 26.6C41.24 26.6 42.56 26.8 43.72 27.2C44.88 27.64 45.84 28.2 46.68 28.92C47.48 29.64 48.12 30.48 48.56 31.4C49 32.36 49.2 33.36 49.2 34.4C49.2 35.64 49 36.64 48.64 37.48C48.24 38.32 47.76 39.08 47.2 39.68C46.6 40.32 46 40.88 45.32 41.36C44.64 41.88 44 42.36 43.44 42.88C42.84 43.4 42.36 44 42 44.64C41.752 45.0367 41.5809 45.4949 41.4867 46.0051C41.3864 46.5482 40.9523 47 40.4 47H37.5337Z" fill="black"/>
</svg>
