<svg width="80" height="80" viewBox="0 0 80 80" fill="none" xmlns="http://www.w3.org/2000/svg">
<rect width="80" height="80" rx="16" fill="white"/>
<path d="M40.6409 51.84C40.9171 51.84 41.1344 51.6132 41.1912 51.3429C41.6951 48.9447 45.8209 48.7108 45.8209 44.88C45.8209 42.24 43.5409 39.96 39.8209 39.96C37.3969 39.96 35.9329 40.968 34.9489 41.952C34.6173 42.298 34.3376 42.6701 34.1047 43.0734C33.8407 43.5305 34.0741 44.0922 34.5534 44.3134L35.9168 44.9427C36.4168 45.1734 37.009 44.9473 37.3812 44.5415C37.4251 44.4936 37.4704 44.4465 37.5169 44.4C37.9969 43.92 38.7409 43.44 39.8209 43.44C41.1409 43.44 41.9809 44.28 41.9809 45.12C41.9809 47.064 37.7809 47.496 37.7809 50.76C37.7809 51.072 37.8289 51.312 37.9009 51.528C37.9413 51.7295 38.1508 51.84 38.3563 51.84H40.6409ZM37.5409 55.32C37.5409 56.4 38.3809 57.24 39.4609 57.24C40.5409 57.24 41.3809 56.4 41.3809 55.32C41.3809 54.24 40.5409 53.4 39.4609 53.4C38.3809 53.4 37.5409 54.24 37.5409 55.32Z" fill="url(#paint0_linear_5415_8415)"/>
<path d="M0 18H80V16C80 7.16344 72.8366 0 64 0H16C7.16344 0 0 7.16344 0 16V18Z" fill="#F6F6F6"/>
<g filter="url(#filter0_d_5415_8415)">
<circle cx="40" cy="18" r="10" fill="white"/>
</g>
<path d="M42.9398 16.175C42.8997 16.1341 42.8485 16.1137 42.7862 16.1137H41.6437C41.5679 15.7365 41.4254 15.4091 41.2161 15.1319H42.7728C42.8352 15.1319 42.8863 15.1114 42.9265 15.0706C42.9664 15.0297 42.9864 14.9774 42.9864 14.9138V14.2182C42.9864 14.1545 42.9664 14.1023 42.9265 14.0614C42.8863 14.0205 42.8352 14 42.7727 14H37.2138C37.1514 14 37.1002 14.0205 37.0601 14.0613C37.0201 14.1023 37 14.1545 37 14.2182V15.125C37 15.184 37.0212 15.2352 37.0635 15.2783C37.1058 15.3215 37.1559 15.3431 37.2138 15.3431H38.1826C39.1224 15.3431 39.7193 15.5999 39.9732 16.1135H37.2138C37.1514 16.1135 37.1001 16.134 37.0601 16.1749C37.0201 16.2158 37 16.268 37 16.3317V17.0272C37 17.0908 37.02 17.1431 37.0601 17.1839C37.1002 17.2249 37.1515 17.2453 37.2138 17.2453H40.0668C39.9688 17.6181 39.7405 17.9021 39.3819 18.0976C39.0233 18.2931 38.5501 18.3908 37.9621 18.3908H37.2138C37.1559 18.3908 37.1058 18.4124 37.0635 18.4556C37.0211 18.4988 37 18.5499 37 18.609V19.475C37 19.5341 37.02 19.5841 37.0601 19.625C37.9153 20.5522 39.0244 21.8499 40.3875 23.5182C40.4276 23.5728 40.4832 23.6 40.5545 23.6H41.8574C41.951 23.6 42.0156 23.5592 42.0512 23.4772C42.0957 23.3954 42.087 23.3181 42.0244 23.2454C40.7239 21.6181 39.7016 20.3999 38.9577 19.5908C39.7149 19.5 40.3296 19.2499 40.8018 18.8409C41.2739 18.4318 41.5612 17.8999 41.6637 17.2454H42.7862C42.8485 17.2454 42.8998 17.225 42.9398 17.184C42.9799 17.1432 43 17.0909 43 17.0273V16.3319C43 16.2681 42.9799 16.2159 42.9398 16.175Z" fill="black"/>
<rect x="19" y="69" width="42" height="2" rx="1" fill="#F6F6F6"/>
<defs>
<filter id="filter0_d_5415_8415" x="22" y="4" width="36" height="36" filterUnits="userSpaceOnUse" color-interpolation-filters="sRGB">
<feFlood flood-opacity="0" result="BackgroundImageFix"/>
<feColorMatrix in="SourceAlpha" type="matrix" values="0 0 0 0 0 0 0 0 0 0 0 0 0 0 0 0 0 0 127 0" result="hardAlpha"/>
<feOffset dy="4"/>
<feGaussianBlur stdDeviation="4"/>
<feComposite in2="hardAlpha" operator="out"/>
<feColorMatrix type="matrix" values="0 0 0 0 0 0 0 0 0 0 0 0 0 0 0 0 0 0 0.1 0"/>
<feBlend mode="normal" in2="BackgroundImageFix" result="effect1_dropShadow_5415_8415"/>
<feBlend mode="normal" in="SourceGraphic" in2="effect1_dropShadow_5415_8415" result="shape"/>
</filter>
<linearGradient id="paint0_linear_5415_8415" x1="27.8621" y1="48.6" x2="43.9063" y2="59.4424" gradientUnits="userSpaceOnUse">
<stop stop-color="#DE206A"/>
<stop offset="0.996625" stop-color="#FF5858"/>
<stop offset="1" stop-color="#FF5858"/>
</linearGradient>
</defs>
</svg>
