<svg width="40" height="40" viewBox="0 0 40 40" fill="none" xmlns="http://www.w3.org/2000/svg">
<mask id="mask0_4865_7965" style="mask-type:alpha" maskUnits="userSpaceOnUse" x="0" y="0" width="40" height="40">
<circle cx="20" cy="20" r="20" fill="black"/>
</mask>
<g mask="url(#mask0_4865_7965)">
<circle cx="20" cy="20" r="20" fill="black"/>
<path fill-rule="evenodd" clip-rule="evenodd" d="M26.9653 13.0957C26.2218 12.2673 24.752 12.122 23.6592 13.1029C23.5345 13.2149 23.286 13.5669 22.9998 14.2809C22.734 14.9442 22.5051 15.7396 22.3174 16.5346C22.2434 16.8478 22.1772 17.1548 22.1186 17.4458C22.4142 17.4189 22.7265 17.3862 23.0459 17.3463C23.8565 17.2452 24.672 17.1034 25.36 16.9105C26.1007 16.7028 26.4774 16.4937 26.6021 16.3817C27.6949 15.4009 27.7087 13.924 26.9653 13.0957ZM20.0783 21.029L20.0783 21.0291L18.0971 21.0553L18.1127 20.927C17.6778 20.8922 17.1953 20.8455 16.6936 20.7829C15.7939 20.6707 14.7913 20.5025 13.8732 20.2451C13.0079 20.0025 11.9904 19.6212 11.2527 18.959C8.89564 16.8435 8.46605 13.1883 10.6255 10.7824C12.7849 8.37649 16.4651 8.41005 18.8221 10.5256C19.3651 11.013 19.7731 11.6673 20.084 12.3114C20.3949 11.6673 20.803 11.013 21.3459 10.5256C23.703 8.41005 27.3832 8.37649 29.5426 10.7824C31.702 13.1883 31.2724 16.8435 28.9154 18.959C28.1776 19.6212 27.1602 20.0025 26.2948 20.2451C25.3767 20.5025 24.3741 20.6707 23.4745 20.7829C22.9727 20.8455 22.4903 20.8922 22.0554 20.927L22.071 21.0553L20.0898 21.0291L20.0898 21.029L20.0893 21.029C20.0893 21.0291 20.0893 21.0291 20.0893 21.0291L20.084 21.029L20.0788 21.0291C20.0788 21.0291 20.0787 21.0291 20.0787 21.029L20.0783 21.029ZM13.2028 13.0957C13.9463 12.2673 15.416 12.122 16.5089 13.1029C16.6336 13.2149 16.8821 13.5669 17.1683 14.2809C17.4341 14.9442 17.6629 15.7396 17.8507 16.5346C17.9247 16.8478 17.9909 17.1548 18.0494 17.4458C17.7538 17.4189 17.4415 17.3862 17.1222 17.3463C16.3115 17.2452 15.4961 17.1034 14.8081 16.9105C14.0674 16.7028 13.6907 16.4937 13.5659 16.3817C12.4731 15.4009 12.4593 13.924 13.2028 13.0957Z" fill="url(#paint0_linear_4865_7965)"/>
<path d="M35.0645 23.2536H4.93458V44.7255H35.0645V23.2536Z" fill="#FFC700"/>
<path d="M37.1426 19.2313C37.1426 18.679 36.6949 18.2313 36.1426 18.2313H3.85686C3.30457 18.2313 2.85686 18.679 2.85686 19.2313V22.2529C2.85686 22.8052 3.30458 23.2529 3.85686 23.2529H36.1426C36.6949 23.2529 37.1426 22.8052 37.1426 22.2529V19.2313Z" fill="#FFC700"/>
<rect x="17.748" y="23.2536" width="4.15584" height="21.4719" fill="#FF8731"/>
<rect x="16.3652" y="18.2313" width="6.92641" height="5.02165" fill="#FF8731"/>
<g style="mix-blend-mode:multiply">
<path d="M35.0645 23.2536H4.93458V32.7774H35.0645V23.2536Z" fill="url(#paint1_linear_4865_7965)"/>
</g>
</g>
<defs>
<linearGradient id="paint0_linear_4865_7965" x1="15.9381" y1="19.3889" x2="15.6183" y2="12.9269" gradientUnits="userSpaceOnUse">
<stop stop-color="#FF6A00"/>
<stop offset="1" stop-color="#FF8731"/>
</linearGradient>
<linearGradient id="paint1_linear_4865_7965" x1="19.9995" y1="23.2536" x2="19.9995" y2="32.7774" gradientUnits="userSpaceOnUse">
<stop stop-color="#FFC700"/>
<stop offset="1" stop-color="#FFC700" stop-opacity="0"/>
</linearGradient>
</defs>
</svg>
