<svg width="20" height="20" viewBox="0 0 20 20" fill="none" xmlns="http://www.w3.org/2000/svg">
<circle cx="10" cy="10" r="10" fill="white"/>
<path d="M12.9398 8.17498C12.8997 8.13407 12.8485 8.11366 12.7862 8.11366H11.6437C11.5679 7.7365 11.4254 7.40912 11.2161 7.13186H12.7728C12.8352 7.13186 12.8863 7.11142 12.9265 7.07061C12.9664 7.02972 12.9864 6.9774 12.9864 6.91378V6.21818C12.9864 6.15451 12.9664 6.10228 12.9265 6.06135C12.8863 6.02051 12.8352 6 12.7727 6H7.21378C7.15139 6 7.10021 6.02051 7.0601 6.06133C7.0201 6.10226 7 6.15449 7 6.21815V7.12496C7 7.18404 7.02116 7.23517 7.06347 7.27835C7.10578 7.32152 7.15588 7.34311 7.21378 7.34311H8.1826C9.12241 7.34311 9.7193 7.59986 9.97317 8.11354H7.21378C7.15139 8.11354 7.10014 8.13395 7.0601 8.17486C7.0201 8.21582 7 8.26802 7 8.33169V9.0272C7 9.09082 7.02001 9.14312 7.0601 9.18393C7.10021 9.22488 7.15148 9.24525 7.21378 9.24525H10.0668C9.96884 9.61808 9.74053 9.90212 9.38191 10.0976C9.02328 10.2931 8.55011 10.3908 7.96211 10.3908H7.21378C7.15588 10.3908 7.10578 10.4124 7.06347 10.4556C7.02113 10.4988 7 10.5499 7 10.609V11.475C7 11.5341 7.02001 11.5841 7.0601 11.625C7.91528 12.5522 9.02445 13.8499 10.3875 15.5182C10.4276 15.5728 10.4832 15.6 10.5545 15.6H11.8574C11.951 15.6 12.0156 15.5592 12.0512 15.4772C12.0957 15.3954 12.087 15.3181 12.0244 15.2454C10.7239 13.6181 9.70156 12.3999 8.95768 11.5908C9.71493 11.5 10.3296 11.2499 10.8018 10.8409C11.2739 10.4318 11.5612 9.8999 11.6637 9.24537H12.7862C12.8485 9.24537 12.8998 9.22498 12.9398 9.18405C12.9799 9.14324 13 9.09094 13 9.02732V8.33188C13 8.26814 12.9799 8.21591 12.9398 8.17498Z" fill="black"/>
</svg>
