<svg width="40" height="40" viewBox="0 0 40 40" fill="none" xmlns="http://www.w3.org/2000/svg">
<circle cx="20" cy="20" r="20" fill="url(#paint0_linear_5415_8706)"/>
<path d="M26.8695 14.7578C26.7828 14.6683 26.6717 14.6236 26.5368 14.6236H24.0614C23.8972 13.7986 23.5883 13.0824 23.1348 12.4759H26.5077C26.643 12.4759 26.7537 12.4312 26.8408 12.342C26.9272 12.2525 26.9706 12.1381 26.9706 11.9989V10.4773C26.9706 10.338 26.9272 10.2237 26.8408 10.1342C26.7536 10.0449 26.6429 10 26.5076 10H14.4632C14.328 10 14.2171 10.0449 14.1302 10.1342C14.0436 10.2237 14 10.3379 14 10.4772V12.4609C14 12.5901 14.0458 12.7019 14.1375 12.7964C14.2292 12.8908 14.3377 12.9381 14.4632 12.9381H16.5623C18.5986 12.9381 19.8918 13.4997 20.4419 14.6234H14.4632C14.328 14.6234 14.217 14.668 14.1302 14.7575C14.0436 14.8471 14 14.9613 14 15.1006V16.622C14 16.7612 14.0434 16.8756 14.1302 16.9648C14.2171 17.0544 14.3282 17.099 14.4632 17.099H20.6448C20.4325 17.9146 19.9378 18.5359 19.1608 18.9635C18.3838 19.3911 17.3586 19.6049 16.0846 19.6049H14.4632C14.3377 19.6049 14.2292 19.6522 14.1375 19.7466C14.0458 19.8411 14 19.953 14 20.0821V21.9765C14 22.1059 14.0434 22.2153 14.1302 22.3047C15.9831 24.333 18.3863 27.1716 21.3395 30.821C21.4264 30.9404 21.547 31 21.7015 31H24.5243C24.7272 31 24.8672 30.9108 24.9442 30.7314C25.0407 30.5525 25.0218 30.3834 24.8862 30.2243C22.0685 26.6645 19.8534 23.9998 18.2416 22.23C19.8823 22.0311 21.2142 21.4841 22.2373 20.5894C23.2602 19.6946 23.8826 18.531 24.1047 17.0993H26.5368C26.6717 17.0993 26.7828 17.0546 26.8695 16.9651C26.9565 16.8758 27 16.7614 27 16.6223V15.101C27 14.9616 26.9565 14.8473 26.8695 14.7578Z" fill="white"/>
<defs>
<linearGradient id="paint0_linear_5415_8706" x1="-19.27" y1="20" x2="20.73" y2="58.54" gradientUnits="userSpaceOnUse">
<stop stop-color="#DE206A"/>
<stop offset="0.996625" stop-color="#FF5858"/>
<stop offset="1" stop-color="#FF5858"/>
</linearGradient>
</defs>
</svg>
